<?xml version="1.0" encoding="UTF-8" standalone="no"?>
<!DOCTYPE svg PUBLIC "-//W3C//DTD SVG 1.1//EN"
 "http://www.w3.org/Graphics/SVG/1.1/DTD/svg11.dtd">
<!-- Generated by graphviz version 2.44.0 (20200408.0750)
 -->
<!-- Title: dependency&#45;cruiser output Pages: 1 -->
<svg width="690pt" height="760pt"
 viewBox="0.00 0.00 690.08 759.86" xmlns="http://www.w3.org/2000/svg" xmlns:xlink="http://www.w3.org/1999/xlink">
<g id="graph0" class="graph" transform="scale(1 1) rotate(0) translate(4 755.86)">
<title>dependency&#45;cruiser output</title>
<polygon fill="white" stroke="transparent" points="-4,4 -4,-755.86 686.08,-755.86 686.08,4 -4,4"/>
<g id="clust1" class="cluster">
<title>cluster_..</title>
<path fill="#ffffff" stroke="black" stroke-width="2" d="M331.54,-178.86C331.54,-178.86 396.05,-178.86 396.05,-178.86 402.05,-178.86 408.05,-184.86 408.05,-190.86 408.05,-190.86 408.05,-347.86 408.05,-347.86 408.05,-353.86 402.05,-359.86 396.05,-359.86 396.05,-359.86 331.54,-359.86 331.54,-359.86 325.54,-359.86 319.54,-353.86 319.54,-347.86 319.54,-347.86 319.54,-190.86 319.54,-190.86 319.54,-184.86 325.54,-178.86 331.54,-178.86"/>
<text text-anchor="middle" x="363.79" y="-347.76" font-family="Helvetica,sans-Serif" font-weight="bold" font-size="9.00">..</text>
</g>
<g id="clust2" class="cluster">
<title>cluster_../models</title>
<path fill="#ffffff" stroke="black" stroke-width="2" d="M339.54,-186.86C339.54,-186.86 388.05,-186.86 388.05,-186.86 394.05,-186.86 400.05,-192.86 400.05,-198.86 400.05,-198.86 400.05,-320.86 400.05,-320.86 400.05,-326.86 394.05,-332.86 388.05,-332.86 388.05,-332.86 339.54,-332.86 339.54,-332.86 333.54,-332.86 327.54,-326.86 327.54,-320.86 327.54,-320.86 327.54,-198.86 327.54,-198.86 327.54,-192.86 333.54,-186.86 339.54,-186.86"/>
<text text-anchor="middle" x="363.79" y="-320.76" font-family="Helvetica,sans-Serif" font-weight="bold" font-size="9.00">models</text>
</g>
<g id="clust3" class="cluster">
<title>cluster_api</title>
<path fill="#ffffff" stroke="black" stroke-width="2" d="M20,-367.86C20,-367.86 657.07,-367.86 657.07,-367.86 663.07,-367.86 669.07,-373.86 669.07,-379.86 669.07,-379.86 669.07,-731.86 669.07,-731.86 669.07,-737.86 663.07,-743.86 657.07,-743.86 657.07,-743.86 20,-743.86 20,-743.86 14,-743.86 8,-737.86 8,-731.86 8,-731.86 8,-379.86 8,-379.86 8,-373.86 14,-367.86 20,-367.86"/>
<text text-anchor="middle" x="338.54" y="-731.76" font-family="Helvetica,sans-Serif" font-weight="bold" font-size="9.00">api</text>
</g>
<g id="clust4" class="cluster">
<title>cluster_api/config</title>
<path fill="#ffffff" stroke="black" stroke-width="2" d="M28,-601.86C28,-601.86 166.51,-601.86 166.51,-601.86 172.51,-601.86 178.51,-607.86 178.51,-613.86 178.51,-613.86 178.51,-704.86 178.51,-704.86 178.51,-710.86 172.51,-716.86 166.51,-716.86 166.51,-716.86 28,-716.86 28,-716.86 22,-716.86 16,-710.86 16,-704.86 16,-704.86 16,-613.86 16,-613.86 16,-607.86 22,-601.86 28,-601.86"/>
<text text-anchor="middle" x="97.26" y="-704.76" font-family="Helvetica,sans-Serif" font-weight="bold" font-size="9.00">config</text>
</g>
<g id="clust5" class="cluster">
<title>cluster_api/db</title>
<path fill="#ffffff" stroke="black" stroke-width="2" d="M528.07,-455.86C528.07,-455.86 574.07,-455.86 574.07,-455.86 580.07,-455.86 586.07,-461.86 586.07,-467.86 586.07,-467.86 586.07,-496.86 586.07,-496.86 586.07,-502.86 580.07,-508.86 574.07,-508.86 574.07,-508.86 528.07,-508.86 528.07,-508.86 522.07,-508.86 516.07,-502.86 516.07,-496.86 516.07,-496.86 516.07,-467.86 516.07,-467.86 516.07,-461.86 522.07,-455.86 528.07,-455.86"/>
<text text-anchor="middle" x="551.07" y="-496.76" font-family="Helvetica,sans-Serif" font-weight="bold" font-size="9.00">db</text>
</g>
<g id="clust6" class="cluster">
<title>cluster_api/models</title>
<path fill="#ffffff" stroke="black" stroke-width="2" d="M334.29,-415.86C334.29,-415.86 496.07,-415.86 496.07,-415.86 502.07,-415.86 508.07,-421.86 508.07,-427.86 508.07,-427.86 508.07,-518.86 508.07,-518.86 508.07,-524.86 502.07,-530.86 496.07,-530.86 496.07,-530.86 334.29,-530.86 334.29,-530.86 328.29,-530.86 322.29,-524.86 322.29,-518.86 322.29,-518.86 322.29,-427.86 322.29,-427.86 322.29,-421.86 328.29,-415.86 334.29,-415.86"/>
<text text-anchor="middle" x="415.18" y="-518.76" font-family="Helvetica,sans-Serif" font-weight="bold" font-size="9.00">models</text>
</g>
<g id="clust7" class="cluster">
<title>cluster_api/routes</title>
<path fill="#ffffff" stroke="black" stroke-width="2" d="M120.51,-375.86C120.51,-375.86 277.78,-375.86 277.78,-375.86 283.78,-375.86 289.78,-381.86 289.78,-387.86 289.78,-387.86 289.78,-478.86 289.78,-478.86 289.78,-484.86 283.78,-490.86 277.78,-490.86 277.78,-490.86 120.51,-490.86 120.51,-490.86 114.51,-490.86 108.51,-484.86 108.51,-478.86 108.51,-478.86 108.51,-387.86 108.51,-387.86 108.51,-381.86 114.51,-375.86 120.51,-375.86"/>
<text text-anchor="middle" x="199.15" y="-478.76" font-family="Helvetica,sans-Serif" font-weight="bold" font-size="9.00">routes</text>
</g>
<g id="clust8" class="cluster">
<title>cluster_api/scripts</title>
<path fill="#ffffff" stroke="black" stroke-width="2" d="M198.51,-498.86C198.51,-498.86 299.54,-498.86 299.54,-498.86 305.54,-498.86 311.54,-504.86 311.54,-510.86 311.54,-510.86 311.54,-694.86 311.54,-694.86 311.54,-700.86 305.54,-706.86 299.54,-706.86 299.54,-706.86 198.51,-706.86 198.51,-706.86 192.51,-706.86 186.51,-700.86 186.51,-694.86 186.51,-694.86 186.51,-510.86 186.51,-510.86 186.51,-504.86 192.51,-498.86 198.51,-498.86"/>
<text text-anchor="middle" x="249.03" y="-694.76" font-family="Helvetica,sans-Serif" font-weight="bold" font-size="9.00">scripts</text>
</g>
<g id="clust9" class="cluster">
<title>cluster_node_modules</title>
<path fill="#ffffff" stroke="black" stroke-width="2" d="M606.07,-103.86C606.07,-103.86 662.08,-103.86 662.08,-103.86 668.08,-103.86 674.08,-109.86 674.08,-115.86 674.08,-115.86 674.08,-330.86 674.08,-330.86 674.08,-336.86 668.08,-342.86 662.08,-342.86 662.08,-342.86 606.07,-342.86 606.07,-342.86 600.07,-342.86 594.07,-336.86 594.07,-330.86 594.07,-330.86 594.07,-115.86 594.07,-115.86 594.07,-109.86 600.07,-103.86 606.07,-103.86"/>
<text text-anchor="middle" x="634.07" y="-330.76" font-family="Helvetica,sans-Serif" font-weight="bold" font-size="9.00">node_modules</text>
</g>
<!-- ../models/language -->
<g id="node1" class="node">
<title>../models/language</title>
<path fill="#ffffcc" stroke="red" d="M384.59,-306.16C384.59,-306.16 343,-306.16 343,-306.16 339.89,-306.16 336.79,-303.06 336.79,-299.96 336.79,-299.96 336.79,-293.76 336.79,-293.76 336.79,-290.66 339.89,-287.56 343,-287.56 343,-287.56 384.59,-287.56 384.59,-287.56 387.69,-287.56 390.79,-290.66 390.79,-293.76 390.79,-293.76 390.79,-299.96 390.79,-299.96 390.79,-303.06 387.69,-306.16 384.59,-306.16"/>
<text text-anchor="middle" x="363.79" y="-294.16" font-family="Helvetica,sans-Serif" font-size="9.00" fill="red">language</text>
</g>
<!-- ../models/nationality -->
<g id="node2" class="node">
<title>../models/nationality</title>
<path fill="#ffffcc" stroke="red" d="M385.6,-213.16C385.6,-213.16 341.98,-213.16 341.98,-213.16 338.88,-213.16 335.78,-210.06 335.78,-206.96 335.78,-206.96 335.78,-200.76 335.78,-200.76 335.78,-197.66 338.88,-194.56 341.98,-194.56 341.98,-194.56 385.6,-194.56 385.6,-194.56 388.71,-194.56 391.81,-197.66 391.81,-200.76 391.81,-200.76 391.81,-206.96 391.81,-206.96 391.81,-210.06 388.71,-213.16 385.6,-213.16"/>
<text text-anchor="middle" x="363.79" y="-201.16" font-family="Helvetica,sans-Serif" font-size="9.00" fill="red">nationality</text>
</g>
<!-- ../models/user -->
<g id="node3" class="node">
<title>../models/user</title>
<path fill="#ffffcc" stroke="red" d="M384.59,-275.16C384.59,-275.16 343,-275.16 343,-275.16 339.89,-275.16 336.79,-272.06 336.79,-268.96 336.79,-268.96 336.79,-262.76 336.79,-262.76 336.79,-259.66 339.89,-256.56 343,-256.56 343,-256.56 384.59,-256.56 384.59,-256.56 387.69,-256.56 390.79,-259.66 390.79,-262.76 390.79,-262.76 390.79,-268.96 390.79,-268.96 390.79,-272.06 387.69,-275.16 384.59,-275.16"/>
<text text-anchor="middle" x="363.79" y="-263.16" font-family="Helvetica,sans-Serif" font-size="9.00" fill="red">user</text>
</g>
<!-- ../models/user.js -->
<g id="node4" class="node">
<title>../models/user.js</title>
<path fill="#ffffcc" stroke="red" d="M384.59,-244.16C384.59,-244.16 343,-244.16 343,-244.16 339.89,-244.16 336.79,-241.06 336.79,-237.96 336.79,-237.96 336.79,-231.76 336.79,-231.76 336.79,-228.66 339.89,-225.56 343,-225.56 343,-225.56 384.59,-225.56 384.59,-225.56 387.69,-225.56 390.79,-228.66 390.79,-231.76 390.79,-231.76 390.79,-237.96 390.79,-237.96 390.79,-241.06 387.69,-244.16 384.59,-244.16"/>
<text text-anchor="middle" x="363.79" y="-232.16" font-family="Helvetica,sans-Serif" font-size="9.00" fill="red">user.js</text>
</g>
<!-- ./language.js -->
<g id="node5" class="node">
<title>./language.js</title>
<path fill="#ffffcc" stroke="red" d="M482.87,-360.16C482.87,-360.16 433.24,-360.16 433.24,-360.16 430.14,-360.16 427.04,-357.06 427.04,-353.96 427.04,-353.96 427.04,-347.76 427.04,-347.76 427.04,-344.66 430.14,-341.56 433.24,-341.56 433.24,-341.56 482.87,-341.56 482.87,-341.56 485.98,-341.56 489.08,-344.66 489.08,-347.76 489.08,-347.76 489.08,-353.96 489.08,-353.96 489.08,-357.06 485.98,-360.16 482.87,-360.16"/>
<text text-anchor="middle" x="458.06" y="-348.16" font-family="Helvetica,sans-Serif" font-size="9.00" fill="red">language.js</text>
</g>
<!-- ./nationality.js -->
<g id="node6" class="node">
<title>./nationality.js</title>
<path fill="#ffffcc" stroke="red" d="M484.37,-329.16C484.37,-329.16 431.75,-329.16 431.75,-329.16 428.65,-329.16 425.55,-326.06 425.55,-322.96 425.55,-322.96 425.55,-316.76 425.55,-316.76 425.55,-313.66 428.65,-310.56 431.75,-310.56 431.75,-310.56 484.37,-310.56 484.37,-310.56 487.47,-310.56 490.57,-313.66 490.57,-316.76 490.57,-316.76 490.57,-322.96 490.57,-322.96 490.57,-326.06 487.47,-329.16 484.37,-329.16"/>
<text text-anchor="middle" x="458.06" y="-317.16" font-family="Helvetica,sans-Serif" font-size="9.00" fill="red">nationality.js</text>
</g>
<!-- api/config.js -->
<g id="node7" class="node">
<title>api/config.js</title>
<g id="a_node7"><a xlink:href="api/config.js" xlink:title="config.js">
<path fill="#ffffcc" stroke="black" d="M654.87,-522.16C654.87,-522.16 613.27,-522.16 613.27,-522.16 610.17,-522.16 607.07,-519.06 607.07,-515.96 607.07,-515.96 607.07,-509.76 607.07,-509.76 607.07,-506.66 610.17,-503.56 613.27,-503.56 613.27,-503.56 654.87,-503.56 654.87,-503.56 657.97,-503.56 661.07,-506.66 661.07,-509.76 661.07,-509.76 661.07,-515.96 661.07,-515.96 661.07,-519.06 657.97,-522.16 654.87,-522.16"/>
<text text-anchor="middle" x="634.07" y="-510.16" font-family="Helvetica,sans-Serif" font-size="9.00">config.js</text>
</a>
</g>
</g>
<!-- node_modules/dotenv -->
<g id="node8" class="node">
<title>node_modules/dotenv</title>
<g id="a_node8"><a xlink:href="node_modules/dotenv" xlink:title="dotenv">
<polygon fill="#c40b0a" fill-opacity="0.101961" stroke="black" points="661.07,-316.16 609.14,-316.16 607.07,-314.09 607.07,-297.56 659,-297.56 661.07,-299.63 661.07,-316.16"/>
<polyline fill="none" stroke="black" points="659,-314.09 607.07,-314.09 "/>
<polyline fill="none" stroke="black" points="659,-314.09 659,-297.56 "/>
<polyline fill="none" stroke="black" points="659,-314.09 661.07,-316.16 "/>
<text text-anchor="middle" x="634.07" y="-304.16" font-family="Helvetica,sans-Serif" font-size="9.00" fill="#c40b0a">dotenv</text>
</a>
</g>
</g>
<!-- api/config.js&#45;&gt;node_modules/dotenv -->
<g id="edge1" class="edge">
<title>api/config.js&#45;&gt;node_modules/dotenv</title>
<path fill="none" stroke="#000000" stroke-opacity="0.200000" d="M630.48,-503.27C608.97,-442.97 608.29,-382.66 628.44,-322.35"/>
<polygon fill="#000000" fill-opacity="0.200000" stroke="#000000" stroke-opacity="0.200000" points="630.48,-322.87 630.45,-316.52 626.51,-321.5 630.48,-322.87"/>
<path fill="none" stroke="#000000" stroke-opacity="0.200000" d="M637.67,-503.27C659.17,-442.97 659.85,-382.66 639.71,-322.35"/>
<polygon fill="#000000" fill-opacity="0.200000" stroke="#000000" stroke-opacity="0.200000" points="641.63,-321.5 637.69,-316.52 637.66,-322.87 641.63,-321.5"/>
</g>
<!-- api/config/default.js -->
<g id="node9" class="node">
<title>api/config/default.js</title>
<g id="a_node9"><a xlink:href="api/config/default.js" xlink:title="default.js">
<path fill="#ffffcc" stroke="black" d="M164.31,-643.16C164.31,-643.16 122.71,-643.16 122.71,-643.16 119.61,-643.16 116.51,-640.06 116.51,-636.96 116.51,-636.96 116.51,-630.76 116.51,-630.76 116.51,-627.66 119.61,-624.56 122.71,-624.56 122.71,-624.56 164.31,-624.56 164.31,-624.56 167.41,-624.56 170.51,-627.66 170.51,-630.76 170.51,-630.76 170.51,-636.96 170.51,-636.96 170.51,-640.06 167.41,-643.16 164.31,-643.16"/>
<text text-anchor="middle" x="143.51" y="-631.16" font-family="Helvetica,sans-Serif" font-size="9.00">default.js</text>
</a>
</g>
</g>
<!-- path -->
<g id="node10" class="node">
<title>path</title>
<path fill="#ffffcc" stroke="grey" d="M269.83,-254.16C269.83,-254.16 228.23,-254.16 228.23,-254.16 225.13,-254.16 222.03,-251.06 222.03,-247.96 222.03,-247.96 222.03,-241.76 222.03,-241.76 222.03,-238.66 225.13,-235.56 228.23,-235.56 228.23,-235.56 269.83,-235.56 269.83,-235.56 272.93,-235.56 276.03,-238.66 276.03,-241.76 276.03,-241.76 276.03,-247.96 276.03,-247.96 276.03,-251.06 272.93,-254.16 269.83,-254.16"/>
<text text-anchor="middle" x="249.03" y="-242.16" font-family="Helvetica,sans-Serif" font-size="9.00" fill="grey">path</text>
</g>
<!-- api/config/default.js&#45;&gt;path -->
<g id="edge2" class="edge">
<title>api/config/default.js&#45;&gt;path</title>
<path fill="none" stroke="#000000" stroke-dasharray="5,2" stroke-opacity="0.200000" d="M147.39,-624.47C154.11,-602.1 170.86,-543.8 178.51,-493.86 186.68,-440.59 172.82,-424.99 186.51,-372.86 197.95,-329.34 224.35,-282.8 238.56,-259.68"/>
<polygon fill="#000000" fill-opacity="0.200000" stroke="#000000" stroke-opacity="0.200000" points="240.51,-260.53 241.9,-254.32 236.94,-258.31 240.51,-260.53"/>
</g>
<!-- api/config/development.js -->
<g id="node11" class="node">
<title>api/config/development.js</title>
<g id="a_node11"><a xlink:href="api/config/development.js" xlink:title="development.js">
<path fill="#ccffcc" stroke="black" d="M94.07,-690.16C94.07,-690.16 30.44,-690.16 30.44,-690.16 27.34,-690.16 24.24,-687.06 24.24,-683.96 24.24,-683.96 24.24,-677.76 24.24,-677.76 24.24,-674.66 27.34,-671.56 30.44,-671.56 30.44,-671.56 94.07,-671.56 94.07,-671.56 97.17,-671.56 100.27,-674.66 100.27,-677.76 100.27,-677.76 100.27,-683.96 100.27,-683.96 100.27,-687.06 97.17,-690.16 94.07,-690.16"/>
<text text-anchor="middle" x="62.26" y="-678.16" font-family="Helvetica,sans-Serif" font-size="9.00">development.js</text>
</a>
</g>
</g>
<!-- api/config/index.js -->
<g id="node12" class="node">
<title>api/config/index.js</title>
<g id="a_node12"><a xlink:href="api/config/index.js" xlink:title="index.js">
<path fill="#ffffcc" stroke="black" d="M83.06,-659.16C83.06,-659.16 41.46,-659.16 41.46,-659.16 38.36,-659.16 35.26,-656.06 35.26,-652.96 35.26,-652.96 35.26,-646.76 35.26,-646.76 35.26,-643.66 38.36,-640.56 41.46,-640.56 41.46,-640.56 83.06,-640.56 83.06,-640.56 86.16,-640.56 89.26,-643.66 89.26,-646.76 89.26,-646.76 89.26,-652.96 89.26,-652.96 89.26,-656.06 86.16,-659.16 83.06,-659.16"/>
<text text-anchor="middle" x="62.26" y="-647.16" font-family="Helvetica,sans-Serif" font-size="9.00">index.js</text>
</a>
</g>
</g>
<!-- api/config/index.js&#45;&gt;api/config/default.js -->
<g id="edge3" class="edge">
<title>api/config/index.js&#45;&gt;api/config/default.js</title>
<path fill="none" stroke="#000000" stroke-width="2" stroke-opacity="0.200000" d="M89.65,-644.53C96.27,-643.2 103.44,-641.75 110.31,-640.36"/>
<polygon fill="#000000" fill-opacity="0.200000" stroke="#000000" stroke-width="2" stroke-opacity="0.200000" points="111.04,-642.36 116.51,-639.11 110.21,-638.24 111.04,-642.36"/>
</g>
<!-- api/config/production.js -->
<g id="node13" class="node">
<title>api/config/production.js</title>
<g id="a_node13"><a xlink:href="api/config/production.js" xlink:title="production.js">
<path fill="#ccffcc" stroke="black" d="M89.57,-628.16C89.57,-628.16 34.95,-628.16 34.95,-628.16 31.85,-628.16 28.75,-625.06 28.75,-621.96 28.75,-621.96 28.75,-615.76 28.75,-615.76 28.75,-612.66 31.85,-609.56 34.95,-609.56 34.95,-609.56 89.57,-609.56 89.57,-609.56 92.67,-609.56 95.77,-612.66 95.77,-615.76 95.77,-615.76 95.77,-621.96 95.77,-621.96 95.77,-625.06 92.67,-628.16 89.57,-628.16"/>
<text text-anchor="middle" x="62.26" y="-616.16" font-family="Helvetica,sans-Serif" font-size="9.00">production.js</text>
</a>
</g>
</g>
<!-- api/db/db.js -->
<g id="node14" class="node">
<title>api/db/db.js</title>
<g id="a_node14"><a xlink:href="api/db/db.js" xlink:title="db.js">
<path fill="#ffffcc" stroke="black" d="M571.87,-482.16C571.87,-482.16 530.27,-482.16 530.27,-482.16 527.17,-482.16 524.07,-479.06 524.07,-475.96 524.07,-475.96 524.07,-469.76 524.07,-469.76 524.07,-466.66 527.17,-463.56 530.27,-463.56 530.27,-463.56 571.87,-463.56 571.87,-463.56 574.97,-463.56 578.07,-466.66 578.07,-469.76 578.07,-469.76 578.07,-475.96 578.07,-475.96 578.07,-479.06 574.97,-482.16 571.87,-482.16"/>
<text text-anchor="middle" x="551.07" y="-470.16" font-family="Helvetica,sans-Serif" font-size="9.00">db.js</text>
</a>
</g>
</g>
<!-- api/db/db.js&#45;&gt;api/config.js -->
<g id="edge4" class="edge">
<title>api/db/db.js&#45;&gt;api/config.js</title>
<path fill="none" stroke="#000000" stroke-width="2" stroke-opacity="0.200000" d="M577.87,-482.24C580.66,-483.4 583.44,-484.61 586.07,-485.86 595.05,-490.12 604.62,-495.47 612.77,-500.27"/>
<polygon fill="#000000" fill-opacity="0.200000" stroke="#000000" stroke-width="2" stroke-opacity="0.200000" points="611.92,-502.21 618.15,-503.49 614.08,-498.61 611.92,-502.21"/>
</g>
<!-- node_modules/sequelize -->
<g id="node15" class="node">
<title>node_modules/sequelize</title>
<g id="a_node15"><a xlink:href="node_modules/sequelize" xlink:title="sequelize">
<polygon fill="#c40b0a" fill-opacity="0.101961" stroke="black" points="661.08,-285.16 609.13,-285.16 607.06,-283.09 607.06,-266.56 659.01,-266.56 661.08,-268.63 661.08,-285.16"/>
<polyline fill="none" stroke="black" points="659.01,-283.09 607.06,-283.09 "/>
<polyline fill="none" stroke="black" points="659.01,-283.09 659.01,-266.56 "/>
<polyline fill="none" stroke="black" points="659.01,-283.09 661.08,-285.16 "/>
<text text-anchor="middle" x="634.07" y="-273.16" font-family="Helvetica,sans-Serif" font-size="9.00" fill="#c40b0a">sequelize</text>
</a>
</g>
</g>
<!-- api/db/db.js&#45;&gt;node_modules/sequelize -->
<g id="edge5" class="edge">
<title>api/db/db.js&#45;&gt;node_modules/sequelize</title>
<path fill="none" stroke="#000000" stroke-opacity="0.200000" d="M569.28,-463.48C575.71,-459.03 582.34,-453.1 586.07,-445.86 601.76,-415.4 574.25,-319.82 594.07,-291.86 596.03,-289.1 598.55,-286.81 601.37,-284.92"/>
<polygon fill="#000000" fill-opacity="0.200000" stroke="#000000" stroke-opacity="0.200000" points="602.51,-286.69 606.71,-281.92 600.45,-283.03 602.51,-286.69"/>
</g>
<!-- api/index.js -->
<g id="node16" class="node">
<title>api/index.js</title>
<g id="a_node16"><a xlink:href="api/index.js" xlink:title="index.js">
<path fill="#ffffcc" stroke="black" d="M83.06,-394.16C83.06,-394.16 41.46,-394.16 41.46,-394.16 38.36,-394.16 35.26,-391.06 35.26,-387.96 35.26,-387.96 35.26,-381.76 35.26,-381.76 35.26,-378.66 38.36,-375.56 41.46,-375.56 41.46,-375.56 83.06,-375.56 83.06,-375.56 86.16,-375.56 89.26,-378.66 89.26,-381.76 89.26,-381.76 89.26,-387.96 89.26,-387.96 89.26,-391.06 86.16,-394.16 83.06,-394.16"/>
<text text-anchor="middle" x="62.26" y="-382.16" font-family="Helvetica,sans-Serif" font-size="9.00">index.js</text>
</a>
</g>
</g>
<!-- api/index.js&#45;&gt;api/config.js -->
<g id="edge6" class="edge">
<title>api/index.js&#45;&gt;api/config.js</title>
<path fill="none" stroke="#000000" stroke-width="2" stroke-opacity="0.200000" d="M66.43,-394.18C73.11,-413.36 89.59,-458.44 108.51,-493.86 134.95,-543.33 160.34,-545.8 178.51,-598.86 182.52,-610.56 177.61,-701.28 186.51,-709.86 242.99,-764.23 284.4,-715.86 362.79,-715.86 362.79,-715.86 362.79,-715.86 459.06,-715.86 557.9,-715.86 612.71,-575.41 628.35,-528.16"/>
<polygon fill="#000000" fill-opacity="0.200000" stroke="#000000" stroke-width="2" stroke-opacity="0.200000" points="630.37,-528.73 630.22,-522.38 626.37,-527.44 630.37,-528.73"/>
</g>
<!-- api/index.js&#45;&gt;path -->
<g id="edge13" class="edge">
<title>api/index.js&#45;&gt;path</title>
<path fill="none" stroke="#000000" stroke-dasharray="5,2" stroke-opacity="0.200000" d="M63.36,-375.56C64.06,-333.16 69.29,-158.83 108.51,-125.86 132.33,-105.84 151.53,-110.37 178.51,-125.86 217.9,-148.46 237.09,-202.96 244.39,-229.63"/>
<polygon fill="#000000" fill-opacity="0.200000" stroke="#000000" stroke-opacity="0.200000" points="242.37,-230.21 245.91,-235.48 246.43,-229.14 242.37,-230.21"/>
</g>
<!-- api/routes/index.js -->
<g id="node17" class="node">
<title>api/routes/index.js</title>
<g id="a_node17"><a xlink:href="api/routes/index.js" xlink:title="index.js">
<path fill="#ffffcc" stroke="black" d="M164.31,-402.16C164.31,-402.16 122.71,-402.16 122.71,-402.16 119.61,-402.16 116.51,-399.06 116.51,-395.96 116.51,-395.96 116.51,-389.76 116.51,-389.76 116.51,-386.66 119.61,-383.56 122.71,-383.56 122.71,-383.56 164.31,-383.56 164.31,-383.56 167.41,-383.56 170.51,-386.66 170.51,-389.76 170.51,-389.76 170.51,-395.96 170.51,-395.96 170.51,-399.06 167.41,-402.16 164.31,-402.16"/>
<text text-anchor="middle" x="143.51" y="-390.16" font-family="Helvetica,sans-Serif" font-size="9.00">index.js</text>
</a>
</g>
</g>
<!-- api/index.js&#45;&gt;api/routes/index.js -->
<g id="edge7" class="edge">
<title>api/index.js&#45;&gt;api/routes/index.js</title>
<path fill="none" stroke="#000000" stroke-width="2" stroke-opacity="0.200000" d="M89.65,-387.52C96.27,-388.19 103.44,-388.92 110.31,-389.61"/>
<polygon fill="#000000" fill-opacity="0.200000" stroke="#000000" stroke-width="2" stroke-opacity="0.200000" points="110.33,-391.72 116.51,-390.24 110.75,-387.54 110.33,-391.72"/>
</g>
<!-- node_modules/body&#45;parser -->
<g id="node18" class="node">
<title>node_modules/body&#45;parser</title>
<g id="a_node18"><a xlink:href="node_modules/body-parser" xlink:title="body&#45;parser">
<polygon fill="#c40b0a" fill-opacity="0.101961" stroke="black" points="666.08,-161.16 604.13,-161.16 602.06,-159.09 602.06,-142.56 664.01,-142.56 666.08,-144.63 666.08,-161.16"/>
<polyline fill="none" stroke="black" points="664.01,-159.09 602.06,-159.09 "/>
<polyline fill="none" stroke="black" points="664.01,-159.09 664.01,-142.56 "/>
<polyline fill="none" stroke="black" points="664.01,-159.09 666.08,-161.16 "/>
<text text-anchor="middle" x="634.07" y="-149.16" font-family="Helvetica,sans-Serif" font-size="9.00" fill="#c40b0a">body&#45;parser</text>
</a>
</g>
</g>
<!-- api/index.js&#45;&gt;node_modules/body&#45;parser -->
<g id="edge8" class="edge">
<title>api/index.js&#45;&gt;node_modules/body&#45;parser</title>
<path fill="none" stroke="#000000" stroke-opacity="0.200000" d="M63.15,-375.42C62.81,-326.96 63.76,-106.72 108.51,-59.86 152.08,-14.25 184.95,-33.86 248.03,-33.86 248.03,-33.86 248.03,-33.86 459.06,-33.86 516.01,-33.86 546.59,-9.81 586.07,-50.86 599.22,-64.54 582.77,-120.62 594.07,-135.86 594.85,-136.92 595.72,-137.91 596.65,-138.83"/>
<polygon fill="#000000" fill-opacity="0.200000" stroke="#000000" stroke-opacity="0.200000" points="595.81,-140.84 601.81,-142.93 598.42,-137.55 595.81,-140.84"/>
</g>
<!-- node_modules/cors -->
<g id="node19" class="node">
<title>node_modules/cors</title>
<g id="a_node19"><a xlink:href="node_modules/cors" xlink:title="cors">
<polygon fill="#c40b0a" fill-opacity="0.101961" stroke="black" points="661.07,-130.16 609.14,-130.16 607.07,-128.09 607.07,-111.56 659,-111.56 661.07,-113.63 661.07,-130.16"/>
<polyline fill="none" stroke="black" points="659,-128.09 607.07,-128.09 "/>
<polyline fill="none" stroke="black" points="659,-128.09 659,-111.56 "/>
<polyline fill="none" stroke="black" points="659,-128.09 661.07,-130.16 "/>
<text text-anchor="middle" x="634.07" y="-118.16" font-family="Helvetica,sans-Serif" font-size="9.00" fill="#c40b0a">cors</text>
</a>
</g>
</g>
<!-- api/index.js&#45;&gt;node_modules/cors -->
<g id="edge9" class="edge">
<title>api/index.js&#45;&gt;node_modules/cors</title>
<path fill="none" stroke="#000000" stroke-opacity="0.200000" d="M62.97,-375.42C61.59,-323.87 57.73,-76.8 108.51,-25.86 152.66,18.41 185.51,-7.86 248.03,-7.86 248.03,-7.86 248.03,-7.86 459.06,-7.86 515.9,-7.86 539.83,10.19 586.07,-22.86 613.73,-42.63 625.74,-83.13 630.43,-105.38"/>
<polygon fill="#000000" fill-opacity="0.200000" stroke="#000000" stroke-opacity="0.200000" points="628.39,-105.91 631.61,-111.39 632.51,-105.1 628.39,-105.91"/>
</g>
<!-- node_modules/express -->
<g id="node20" class="node">
<title>node_modules/express</title>
<g id="a_node20"><a xlink:href="node_modules/express" xlink:title="express">
<polygon fill="#c40b0a" fill-opacity="0.101961" stroke="black" points="661.07,-223.16 609.14,-223.16 607.07,-221.09 607.07,-204.56 659,-204.56 661.07,-206.63 661.07,-223.16"/>
<polyline fill="none" stroke="black" points="659,-221.09 607.07,-221.09 "/>
<polyline fill="none" stroke="black" points="659,-221.09 659,-204.56 "/>
<polyline fill="none" stroke="black" points="659,-221.09 661.07,-223.16 "/>
<text text-anchor="middle" x="634.07" y="-211.16" font-family="Helvetica,sans-Serif" font-size="9.00" fill="#c40b0a">express</text>
</a>
</g>
</g>
<!-- api/index.js&#45;&gt;node_modules/express -->
<g id="edge10" class="edge">
<title>api/index.js&#45;&gt;node_modules/express</title>
<path fill="none" stroke="#000000" stroke-opacity="0.200000" d="M69.34,-375.25C88.49,-344.55 148.04,-245.63 178.51,-155.86 184.62,-137.87 172.87,-127.09 186.51,-113.86 243.46,-58.63 283.47,-85.86 362.79,-85.86 362.79,-85.86 362.79,-85.86 459.06,-85.86 516.86,-85.86 547.76,-70.57 586.07,-113.86 598.49,-127.9 582.9,-182.8 594.07,-197.86 596.09,-200.58 598.65,-202.84 601.49,-204.71"/>
<polygon fill="#000000" fill-opacity="0.200000" stroke="#000000" stroke-opacity="0.200000" points="600.59,-206.62 606.85,-207.69 602.63,-202.94 600.59,-206.62"/>
</g>
<!-- fs -->
<g id="node21" class="node">
<title>fs</title>
<path fill="#ffffcc" stroke="grey" d="M164.31,-150.16C164.31,-150.16 122.71,-150.16 122.71,-150.16 119.61,-150.16 116.51,-147.06 116.51,-143.96 116.51,-143.96 116.51,-137.76 116.51,-137.76 116.51,-134.66 119.61,-131.56 122.71,-131.56 122.71,-131.56 164.31,-131.56 164.31,-131.56 167.41,-131.56 170.51,-134.66 170.51,-137.76 170.51,-137.76 170.51,-143.96 170.51,-143.96 170.51,-147.06 167.41,-150.16 164.31,-150.16"/>
<text text-anchor="middle" x="143.51" y="-138.16" font-family="Helvetica,sans-Serif" font-size="9.00" fill="grey">fs</text>
</g>
<!-- api/index.js&#45;&gt;fs -->
<g id="edge11" class="edge">
<title>api/index.js&#45;&gt;fs</title>
<path fill="none" stroke="#000000" stroke-dasharray="5,2" stroke-opacity="0.200000" d="M64.08,-375.33C67.56,-336.98 82.08,-194.31 108.51,-158.86 109.87,-157.04 111.47,-155.39 113.22,-153.89"/>
<polygon fill="#000000" fill-opacity="0.200000" stroke="#000000" stroke-opacity="0.200000" points="114.55,-155.51 118.14,-150.27 112.06,-152.13 114.55,-155.51"/>
</g>
<!-- node_modules/morgan -->
<g id="node22" class="node">
<title>node_modules/morgan</title>
<g id="a_node22"><a xlink:href="node_modules/morgan" xlink:title="morgan">
<polygon fill="#c40b0a" fill-opacity="0.101961" stroke="black" points="661.07,-192.16 609.14,-192.16 607.07,-190.09 607.07,-173.56 659,-173.56 661.07,-175.63 661.07,-192.16"/>
<polyline fill="none" stroke="black" points="659,-190.09 607.07,-190.09 "/>
<polyline fill="none" stroke="black" points="659,-190.09 659,-173.56 "/>
<polyline fill="none" stroke="black" points="659,-190.09 661.07,-192.16 "/>
<text text-anchor="middle" x="634.07" y="-180.16" font-family="Helvetica,sans-Serif" font-size="9.00" fill="#c40b0a">morgan</text>
</a>
</g>
</g>
<!-- api/index.js&#45;&gt;node_modules/morgan -->
<g id="edge12" class="edge">
<title>api/index.js&#45;&gt;node_modules/morgan</title>
<path fill="none" stroke="#000000" stroke-opacity="0.200000" d="M63.61,-375.3C65.42,-331.66 74.82,-151.7 108.51,-108.86 149.15,-57.21 182.31,-59.86 248.03,-59.86 248.03,-59.86 248.03,-59.86 459.06,-59.86 516.2,-59.86 546.98,-38.17 586.07,-79.86 599.35,-94.02 582.53,-151.25 594.07,-166.86 596.08,-169.58 598.64,-171.84 601.48,-173.72"/>
<polygon fill="#000000" fill-opacity="0.200000" stroke="#000000" stroke-opacity="0.200000" points="600.58,-175.62 606.84,-176.7 602.62,-171.95 600.58,-175.62"/>
</g>
<!-- api/routes/index.js&#45;&gt;node_modules/express -->
<g id="edge28" class="edge">
<title>api/routes/index.js&#45;&gt;node_modules/express</title>
<path fill="none" stroke="#000000" stroke-opacity="0.200000" d="M144.71,-383.46C145.69,-356.9 151.58,-279.96 186.51,-229.86 240.44,-152.53 268.51,-111.86 362.79,-111.86 362.79,-111.86 362.79,-111.86 459.06,-111.86 520.93,-111.86 545.78,-121.9 586.07,-168.86 594.77,-179.01 585.2,-187.86 594.07,-197.86 596.25,-200.33 598.88,-202.42 601.71,-204.19"/>
<polygon fill="#000000" fill-opacity="0.200000" stroke="#000000" stroke-opacity="0.200000" points="600.73,-206.05 607.01,-207.06 602.73,-202.35 600.73,-206.05"/>
</g>
<!-- api/routes/nationality.js -->
<g id="node27" class="node">
<title>api/routes/nationality.js</title>
<g id="a_node27"><a xlink:href="api/routes/nationality.js" xlink:title="nationality.js">
<path fill="#ffffcc" stroke="black" d="M275.34,-464.16C275.34,-464.16 222.72,-464.16 222.72,-464.16 219.62,-464.16 216.52,-461.06 216.52,-457.96 216.52,-457.96 216.52,-451.76 216.52,-451.76 216.52,-448.66 219.62,-445.56 222.72,-445.56 222.72,-445.56 275.34,-445.56 275.34,-445.56 278.44,-445.56 281.54,-448.66 281.54,-451.76 281.54,-451.76 281.54,-457.96 281.54,-457.96 281.54,-461.06 278.44,-464.16 275.34,-464.16"/>
<text text-anchor="middle" x="249.03" y="-452.16" font-family="Helvetica,sans-Serif" font-size="9.00">nationality.js</text>
</a>
</g>
</g>
<!-- api/routes/index.js&#45;&gt;api/routes/nationality.js -->
<g id="edge25" class="edge">
<title>api/routes/index.js&#45;&gt;api/routes/nationality.js</title>
<path fill="none" stroke="#000000" stroke-width="2" stroke-opacity="0.200000" d="M170.74,-399.77C173.65,-401.39 176.34,-403.39 178.51,-405.86 188.48,-417.19 175.93,-428.1 186.51,-438.86 192.86,-445.32 201.46,-449.28 210.22,-451.68"/>
<polygon fill="#000000" fill-opacity="0.200000" stroke="#000000" stroke-width="2" stroke-opacity="0.200000" points="209.96,-453.78 216.28,-453.11 210.92,-449.69 209.96,-453.78"/>
</g>
<!-- api/routes/resource.js -->
<g id="node28" class="node">
<title>api/routes/resource.js</title>
<g id="a_node28"><a xlink:href="api/routes/resource.js" xlink:title="resource.js">
<path fill="#ffffcc" stroke="black" d="M272.83,-402.16C272.83,-402.16 225.23,-402.16 225.23,-402.16 222.12,-402.16 219.02,-399.06 219.02,-395.96 219.02,-395.96 219.02,-389.76 219.02,-389.76 219.02,-386.66 222.12,-383.56 225.23,-383.56 225.23,-383.56 272.83,-383.56 272.83,-383.56 275.93,-383.56 279.03,-386.66 279.03,-389.76 279.03,-389.76 279.03,-395.96 279.03,-395.96 279.03,-399.06 275.93,-402.16 272.83,-402.16"/>
<text text-anchor="middle" x="249.03" y="-390.16" font-family="Helvetica,sans-Serif" font-size="9.00">resource.js</text>
</a>
</g>
</g>
<!-- api/routes/index.js&#45;&gt;api/routes/resource.js -->
<g id="edge26" class="edge">
<title>api/routes/index.js&#45;&gt;api/routes/resource.js</title>
<path fill="none" stroke="#000000" stroke-width="2" stroke-opacity="0.200000" d="M170.63,-392.86C183.41,-392.86 198.98,-392.86 212.79,-392.86"/>
<polygon fill="#000000" fill-opacity="0.200000" stroke="#000000" stroke-width="2" stroke-opacity="0.200000" points="213,-394.96 219,-392.86 213,-390.76 213,-394.96"/>
</g>
<!-- api/routes/user.js -->
<g id="node29" class="node">
<title>api/routes/user.js</title>
<g id="a_node29"><a xlink:href="api/routes/user.js" xlink:title="user.js">
<path fill="#ffffcc" stroke="black" d="M269.83,-433.16C269.83,-433.16 228.23,-433.16 228.23,-433.16 225.13,-433.16 222.03,-430.06 222.03,-426.96 222.03,-426.96 222.03,-420.76 222.03,-420.76 222.03,-417.66 225.13,-414.56 228.23,-414.56 228.23,-414.56 269.83,-414.56 269.83,-414.56 272.93,-414.56 276.03,-417.66 276.03,-420.76 276.03,-420.76 276.03,-426.96 276.03,-426.96 276.03,-430.06 272.93,-433.16 269.83,-433.16"/>
<text text-anchor="middle" x="249.03" y="-421.16" font-family="Helvetica,sans-Serif" font-size="9.00">user.js</text>
</a>
</g>
</g>
<!-- api/routes/index.js&#45;&gt;api/routes/user.js -->
<g id="edge27" class="edge">
<title>api/routes/index.js&#45;&gt;api/routes/user.js</title>
<path fill="none" stroke="#000000" stroke-width="2" stroke-opacity="0.200000" d="M169.71,-402.27C175.22,-404.21 181.04,-406.17 186.51,-407.86 195.94,-410.76 206.29,-413.59 215.76,-416.04"/>
<polygon fill="#000000" fill-opacity="0.200000" stroke="#000000" stroke-width="2" stroke-opacity="0.200000" points="215.51,-418.14 221.84,-417.59 216.55,-414.08 215.51,-418.14"/>
</g>
<!-- api/models/Language.js -->
<g id="node23" class="node">
<title>api/models/Language.js</title>
<g id="a_node23"><a xlink:href="api/models/Language.js" xlink:title="Language.js">
<path fill="#ffffcc" stroke="black" d="M390.12,-504.16C390.12,-504.16 337.47,-504.16 337.47,-504.16 334.37,-504.16 331.27,-501.06 331.27,-497.96 331.27,-497.96 331.27,-491.76 331.27,-491.76 331.27,-488.66 334.37,-485.56 337.47,-485.56 337.47,-485.56 390.12,-485.56 390.12,-485.56 393.22,-485.56 396.32,-488.66 396.32,-491.76 396.32,-491.76 396.32,-497.96 396.32,-497.96 396.32,-501.06 393.22,-504.16 390.12,-504.16"/>
<text text-anchor="middle" x="363.79" y="-492.16" font-family="Helvetica,sans-Serif" font-size="9.00">Language.js</text>
</a>
</g>
</g>
<!-- api/models/Language.js&#45;&gt;api/db/db.js -->
<g id="edge14" class="edge">
<title>api/models/Language.js&#45;&gt;api/db/db.js</title>
<path fill="none" stroke="#000000" stroke-width="2" stroke-opacity="0.200000" d="M396.42,-495.96C425.67,-496.36 470.21,-495.38 508.07,-487.86 510.69,-487.34 514.95,-486.01 519.77,-484.35"/>
<polygon fill="#000000" fill-opacity="0.200000" stroke="#000000" stroke-width="2" stroke-opacity="0.200000" points="520.68,-486.25 525.63,-482.27 519.27,-482.3 520.68,-486.25"/>
</g>
<!-- api/models/Language.js&#45;&gt;node_modules/sequelize -->
<g id="edge15" class="edge">
<title>api/models/Language.js&#45;&gt;node_modules/sequelize</title>
<path fill="none" stroke="#000000" stroke-opacity="0.200000" d="M396.47,-486.82C400.72,-484.74 404.75,-482.13 408.05,-478.86 415.15,-471.83 409.91,-465.74 416.05,-457.86 472.75,-385.11 536.73,-416.79 586.07,-338.86 597.4,-320.96 580.83,-308.4 594.07,-291.86 596.02,-289.42 598.41,-287.34 601.04,-285.59"/>
<polygon fill="#000000" fill-opacity="0.200000" stroke="#000000" stroke-opacity="0.200000" points="602.5,-287.18 606.69,-282.4 600.43,-283.52 602.5,-287.18"/>
</g>
<!-- api/models/Nationality.js -->
<g id="node24" class="node">
<title>api/models/Nationality.js</title>
<g id="a_node24"><a xlink:href="api/models/Nationality.js" xlink:title="Nationality.js">
<path fill="#ffffcc" stroke="black" d="M391.09,-473.16C391.09,-473.16 336.49,-473.16 336.49,-473.16 333.39,-473.16 330.29,-470.06 330.29,-466.96 330.29,-466.96 330.29,-460.76 330.29,-460.76 330.29,-457.66 333.39,-454.56 336.49,-454.56 336.49,-454.56 391.09,-454.56 391.09,-454.56 394.2,-454.56 397.3,-457.66 397.3,-460.76 397.3,-460.76 397.3,-466.96 397.3,-466.96 397.3,-470.06 394.2,-473.16 391.09,-473.16"/>
<text text-anchor="middle" x="363.79" y="-461.16" font-family="Helvetica,sans-Serif" font-size="9.00">Nationality.js</text>
</a>
</g>
</g>
<!-- api/models/Nationality.js&#45;&gt;api/db/db.js -->
<g id="edge16" class="edge">
<title>api/models/Nationality.js&#45;&gt;api/db/db.js</title>
<path fill="none" stroke="#000000" stroke-width="2" stroke-opacity="0.200000" d="M397.48,-458.57C426.69,-454.77 470.54,-451.36 508.07,-457.86 512.79,-458.68 517.68,-459.98 522.39,-461.48"/>
<polygon fill="#000000" fill-opacity="0.200000" stroke="#000000" stroke-width="2" stroke-opacity="0.200000" points="521.86,-463.52 528.22,-463.46 523.22,-459.54 521.86,-463.52"/>
</g>
<!-- api/models/Nationality.js&#45;&gt;node_modules/sequelize -->
<g id="edge17" class="edge">
<title>api/models/Nationality.js&#45;&gt;node_modules/sequelize</title>
<path fill="none" stroke="#000000" stroke-opacity="0.200000" d="M397.53,-456.17C401.53,-454.04 405.2,-451.33 408.05,-447.86 422.33,-430.47 401.6,-415.11 416.05,-397.86 443.86,-364.67 470.55,-387.47 508.07,-365.86 551.76,-340.69 551.08,-318.21 594.07,-291.86 596.31,-290.48 598.7,-289.18 601.14,-287.95"/>
<polygon fill="#000000" fill-opacity="0.200000" stroke="#000000" stroke-opacity="0.200000" points="602.37,-289.69 606.9,-285.23 600.58,-285.89 602.37,-289.69"/>
</g>
<!-- api/models/User.js -->
<g id="node25" class="node">
<title>api/models/User.js</title>
<g id="a_node25"><a xlink:href="api/models/User.js" xlink:title="User.js">
<path fill="#ffffcc" stroke="black" d="M384.59,-442.16C384.59,-442.16 343,-442.16 343,-442.16 339.89,-442.16 336.79,-439.06 336.79,-435.96 336.79,-435.96 336.79,-429.76 336.79,-429.76 336.79,-426.66 339.89,-423.56 343,-423.56 343,-423.56 384.59,-423.56 384.59,-423.56 387.69,-423.56 390.79,-426.66 390.79,-429.76 390.79,-429.76 390.79,-435.96 390.79,-435.96 390.79,-439.06 387.69,-442.16 384.59,-442.16"/>
<text text-anchor="middle" x="363.79" y="-430.16" font-family="Helvetica,sans-Serif" font-size="9.00">User.js</text>
</a>
</g>
</g>
<!-- api/models/User.js&#45;&gt;./language.js -->
<g id="edge19" class="edge">
<title>api/models/User.js&#45;&gt;./language.js</title>
<path fill="none" stroke="#000000" stroke-width="2" stroke-opacity="0.200000" d="M390.89,-424.28C397.35,-421.01 403.67,-416.63 408.05,-410.86 419,-396.42 404.97,-385.21 416.05,-370.86 418.17,-368.12 420.76,-365.73 423.6,-363.65"/>
<polygon fill="#000000" fill-opacity="0.200000" stroke="#000000" stroke-width="2" stroke-opacity="0.200000" points="425.01,-365.24 428.94,-360.24 422.75,-361.7 425.01,-365.24"/>
</g>
<!-- api/models/User.js&#45;&gt;./nationality.js -->
<g id="edge20" class="edge">
<title>api/models/User.js&#45;&gt;./nationality.js</title>
<path fill="none" stroke="#000000" stroke-width="2" stroke-opacity="0.200000" d="M390.8,-424.76C397.42,-421.47 403.84,-416.97 408.05,-410.86 427.07,-383.26 395.69,-362.5 416.05,-335.86 417.3,-334.22 418.75,-332.75 420.33,-331.43"/>
<polygon fill="#000000" fill-opacity="0.200000" stroke="#000000" stroke-width="2" stroke-opacity="0.200000" points="421.69,-333.04 425.43,-327.9 419.3,-329.58 421.69,-333.04"/>
</g>
<!-- api/models/User.js&#45;&gt;api/db/db.js -->
<g id="edge18" class="edge">
<title>api/models/User.js&#45;&gt;api/db/db.js</title>
<path fill="none" stroke="#000000" stroke-width="2" stroke-opacity="0.200000" d="M391.01,-433.37C420.2,-434.56 468.48,-438.45 508.07,-450.86 515.55,-453.21 523.29,-456.86 530.05,-460.51"/>
<polygon fill="#000000" fill-opacity="0.200000" stroke="#000000" stroke-width="2" stroke-opacity="0.200000" points="529.21,-462.45 535.47,-463.56 531.27,-458.79 529.21,-462.45"/>
</g>
<!-- api/models/User.js&#45;&gt;node_modules/sequelize -->
<g id="edge22" class="edge">
<title>api/models/User.js&#45;&gt;node_modules/sequelize</title>
<path fill="none" stroke="#000000" stroke-opacity="0.200000" d="M390.92,-424.84C397.54,-421.56 403.94,-417.03 408.05,-410.86 421.15,-391.2 399.83,-322.04 416.05,-304.86 428.51,-291.66 543.23,-282.01 600.65,-277.96"/>
<polygon fill="#000000" fill-opacity="0.200000" stroke="#000000" stroke-opacity="0.200000" points="600.85,-280.06 606.69,-277.54 600.56,-275.87 600.85,-280.06"/>
</g>
<!-- api/models/UserLanguage.js -->
<g id="node26" class="node">
<title>api/models/UserLanguage.js</title>
<g id="a_node26"><a xlink:href="api/models/UserLanguage.js" xlink:title="UserLanguage.js">
<path fill="#ffffcc" stroke="black" d="M493.88,-482.16C493.88,-482.16 422.24,-482.16 422.24,-482.16 419.14,-482.16 416.04,-479.06 416.04,-475.96 416.04,-475.96 416.04,-469.76 416.04,-469.76 416.04,-466.66 419.14,-463.56 422.24,-463.56 422.24,-463.56 493.88,-463.56 493.88,-463.56 496.98,-463.56 500.08,-466.66 500.08,-469.76 500.08,-469.76 500.08,-475.96 500.08,-475.96 500.08,-479.06 496.98,-482.16 493.88,-482.16"/>
<text text-anchor="middle" x="458.06" y="-470.16" font-family="Helvetica,sans-Serif" font-size="9.00">UserLanguage.js</text>
</a>
</g>
</g>
<!-- api/models/User.js&#45;&gt;api/models/UserLanguage.js -->
<g id="edge21" class="edge">
<title>api/models/User.js&#45;&gt;api/models/UserLanguage.js</title>
<path fill="none" stroke="#000000" stroke-width="2" stroke-opacity="0.200000" d="M391.04,-442.08C396.69,-444.21 402.6,-446.53 408.05,-448.86 416.54,-452.5 425.67,-456.85 433.73,-460.84"/>
<polygon fill="#000000" fill-opacity="0.200000" stroke="#000000" stroke-width="2" stroke-opacity="0.200000" points="432.8,-462.72 439.11,-463.53 434.68,-458.97 432.8,-462.72"/>
</g>
<!-- api/models/UserLanguage.js&#45;&gt;api/db/db.js -->
<g id="edge23" class="edge">
<title>api/models/UserLanguage.js&#45;&gt;api/db/db.js</title>
<path fill="none" stroke="#000000" stroke-width="2" stroke-opacity="0.200000" d="M500.3,-472.86C506.17,-472.86 512.14,-472.86 517.81,-472.86"/>
<polygon fill="#000000" fill-opacity="0.200000" stroke="#000000" stroke-width="2" stroke-opacity="0.200000" points="517.82,-474.96 523.82,-472.86 517.82,-470.76 517.82,-474.96"/>
</g>
<!-- api/models/UserLanguage.js&#45;&gt;node_modules/sequelize -->
<g id="edge24" class="edge">
<title>api/models/UserLanguage.js&#45;&gt;node_modules/sequelize</title>
<path fill="none" stroke="#000000" stroke-opacity="0.200000" d="M484.35,-463.54C519.58,-450.3 579.85,-426.71 586.07,-417.86 602.2,-394.91 577.71,-314.65 594.07,-291.86 596.04,-289.11 598.58,-286.83 601.4,-284.94"/>
<polygon fill="#000000" fill-opacity="0.200000" stroke="#000000" stroke-opacity="0.200000" points="602.54,-286.71 606.75,-281.95 600.49,-283.05 602.54,-286.71"/>
</g>
<!-- api/routes/nationality.js&#45;&gt;node_modules/express -->
<g id="edge30" class="edge">
<title>api/routes/nationality.js&#45;&gt;node_modules/express</title>
<path fill="none" stroke="#000000" stroke-opacity="0.200000" d="M281.83,-452.78C292.44,-450.6 303.57,-446.49 311.54,-438.86 320.28,-430.5 311.67,-422.04 319.54,-412.86 348,-379.65 383.17,-405.83 408.05,-369.86 419.09,-353.89 403.88,-297.99 416.05,-282.86 427.91,-268.11 543.49,-236.81 600.96,-221.98"/>
<polygon fill="#000000" fill-opacity="0.200000" stroke="#000000" stroke-opacity="0.200000" points="601.72,-223.95 607.01,-220.43 600.67,-219.89 601.72,-223.95"/>
</g>
<!-- api/routes/nationality.js&#45;&gt;api/models/Nationality.js -->
<g id="edge29" class="edge">
<title>api/routes/nationality.js&#45;&gt;api/models/Nationality.js</title>
<path fill="none" stroke="#000000" stroke-width="2" stroke-opacity="0.200000" d="M281.74,-457.39C294.85,-458.44 310.17,-459.66 323.94,-460.76"/>
<polygon fill="#000000" fill-opacity="0.200000" stroke="#000000" stroke-width="2" stroke-opacity="0.200000" points="324,-462.87 330.14,-461.25 324.33,-458.68 324,-462.87"/>
</g>
<!-- api/routes/resource.js&#45;&gt;node_modules/express -->
<g id="edge31" class="edge">
<title>api/routes/resource.js&#45;&gt;node_modules/express</title>
<path fill="none" stroke="#000000" stroke-opacity="0.200000" d="M279.31,-391.32C315.77,-387.69 377.03,-375.65 408.05,-335.86 419.03,-321.77 404.01,-269.06 416.05,-255.86 463.08,-204.31 552.79,-204.8 600.83,-209.41"/>
<polygon fill="#000000" fill-opacity="0.200000" stroke="#000000" stroke-opacity="0.200000" points="600.85,-211.53 607.03,-210.06 601.28,-207.35 600.85,-211.53"/>
</g>
<!-- api/routes/user.js&#45;&gt;../models/nationality -->
<g id="edge33" class="edge">
<title>api/routes/user.js&#45;&gt;../models/nationality</title>
<path fill="none" stroke="#000000" stroke-width="2" stroke-opacity="0.200000" d="M276.3,-423.87C288.95,-422.39 303.15,-418.25 311.54,-407.86 324.68,-391.6 307.23,-236.76 319.54,-219.86 322.2,-216.21 325.78,-213.39 329.76,-211.22"/>
<polygon fill="#000000" fill-opacity="0.200000" stroke="#000000" stroke-width="2" stroke-opacity="0.200000" points="330.8,-213.05 335.37,-208.63 329.04,-209.24 330.8,-213.05"/>
</g>
<!-- api/routes/user.js&#45;&gt;node_modules/express -->
<g id="edge35" class="edge">
<title>api/routes/user.js&#45;&gt;node_modules/express</title>
<path fill="none" stroke="#000000" stroke-opacity="0.200000" d="M276.04,-423.95C288.77,-422.51 303.14,-418.38 311.54,-407.86 329.16,-385.8 299.26,-173.51 319.54,-153.86 359.99,-114.66 533.9,-175.55 603.81,-202.29"/>
<polygon fill="#000000" fill-opacity="0.200000" stroke="#000000" stroke-opacity="0.200000" points="603.1,-204.27 609.45,-204.46 604.61,-200.35 603.1,-204.27"/>
</g>
<!-- api/routes/user.js&#45;&gt;api/models/Language.js -->
<g id="edge32" class="edge">
<title>api/routes/user.js&#45;&gt;api/models/Language.js</title>
<path fill="none" stroke="#000000" stroke-width="2" stroke-opacity="0.200000" d="M276.26,-424.52C288.57,-426.21 302.5,-430.34 311.54,-439.86 323.72,-452.69 308.01,-465.44 319.54,-478.86 321.3,-480.91 323.35,-482.7 325.58,-484.26"/>
<polygon fill="#000000" fill-opacity="0.200000" stroke="#000000" stroke-width="2" stroke-opacity="0.200000" points="324.82,-486.25 331.06,-487.5 326.96,-482.64 324.82,-486.25"/>
</g>
<!-- api/routes/user.js&#45;&gt;api/models/User.js -->
<g id="edge34" class="edge">
<title>api/routes/user.js&#45;&gt;api/models/User.js</title>
<path fill="none" stroke="#000000" stroke-width="2" stroke-opacity="0.200000" d="M276.18,-425.95C292.41,-427.24 313.37,-428.92 330.61,-430.29"/>
<polygon fill="#000000" fill-opacity="0.200000" stroke="#000000" stroke-width="2" stroke-opacity="0.200000" points="330.63,-432.4 336.78,-430.78 330.97,-428.21 330.63,-432.4"/>
</g>
<!-- api/scripts/createDb.js -->
<g id="node30" class="node">
<title>api/scripts/createDb.js</title>
<g id="a_node30"><a xlink:href="api/scripts/createDb.js" xlink:title="createDb.js">
<path fill="#ffffcc" stroke="black" d="M273.33,-525.16C273.33,-525.16 224.72,-525.16 224.72,-525.16 221.62,-525.16 218.52,-522.06 218.52,-518.96 218.52,-518.96 218.52,-512.76 218.52,-512.76 218.52,-509.66 221.62,-506.56 224.72,-506.56 224.72,-506.56 273.33,-506.56 273.33,-506.56 276.43,-506.56 279.53,-509.66 279.53,-512.76 279.53,-512.76 279.53,-518.96 279.53,-518.96 279.53,-522.06 276.43,-525.16 273.33,-525.16"/>
<text text-anchor="middle" x="249.03" y="-513.16" font-family="Helvetica,sans-Serif" font-size="9.00">createDb.js</text>
</a>
</g>
</g>
<!-- api/scripts/createDb.js&#45;&gt;api/config.js -->
<g id="edge36" class="edge">
<title>api/scripts/createDb.js&#45;&gt;api/config.js</title>
<path fill="none" stroke="#000000" stroke-width="2" stroke-opacity="0.200000" d="M279.58,-523.56C298.26,-528.41 319,-533.79 319.54,-533.86 402.66,-544.45 424.57,-540.83 508.07,-533.86 539.81,-531.21 575.62,-524.85 600.74,-519.81"/>
<polygon fill="#000000" fill-opacity="0.200000" stroke="#000000" stroke-width="2" stroke-opacity="0.200000" points="601.43,-521.82 606.89,-518.56 600.6,-517.7 601.43,-521.82"/>
</g>
<!-- node_modules/pgtools -->
<g id="node31" class="node">
<title>node_modules/pgtools</title>
<g id="a_node31"><a xlink:href="node_modules/pgtools" xlink:title="pgtools">
<polygon fill="#c40b0a" fill-opacity="0.101961" stroke="black" points="661.07,-254.16 609.14,-254.16 607.07,-252.09 607.07,-235.56 659,-235.56 661.07,-237.63 661.07,-254.16"/>
<polyline fill="none" stroke="black" points="659,-252.09 607.07,-252.09 "/>
<polyline fill="none" stroke="black" points="659,-252.09 659,-235.56 "/>
<polyline fill="none" stroke="black" points="659,-252.09 661.07,-254.16 "/>
<text text-anchor="middle" x="634.07" y="-242.16" font-family="Helvetica,sans-Serif" font-size="9.00" fill="#c40b0a">pgtools</text>
</a>
</g>
</g>
<!-- api/scripts/createDb.js&#45;&gt;node_modules/pgtools -->
<g id="edge37" class="edge">
<title>api/scripts/createDb.js&#45;&gt;node_modules/pgtools</title>
<path fill="none" stroke="#000000" stroke-opacity="0.200000" d="M279.77,-512.5C291.61,-509.55 304.16,-504.06 311.54,-493.86 321.64,-479.91 307.2,-195.88 319.54,-183.86 360,-144.43 534.7,-206.42 604.3,-233.36"/>
<polygon fill="#000000" fill-opacity="0.200000" stroke="#000000" stroke-opacity="0.200000" points="603.56,-235.32 609.91,-235.54 605.08,-231.41 603.56,-235.32"/>
</g>
<!-- api/scripts/createLanguage.js -->
<g id="node32" class="node">
<title>api/scripts/createLanguage.js</title>
<g id="a_node32"><a xlink:href="api/scripts/createLanguage.js" xlink:title="createLanguage.js">
<path fill="#ffffcc" stroke="black" d="M287.86,-649.16C287.86,-649.16 210.2,-649.16 210.2,-649.16 207.1,-649.16 204,-646.06 204,-642.96 204,-642.96 204,-636.76 204,-636.76 204,-633.66 207.1,-630.56 210.2,-630.56 210.2,-630.56 287.86,-630.56 287.86,-630.56 290.96,-630.56 294.06,-633.66 294.06,-636.76 294.06,-636.76 294.06,-642.96 294.06,-642.96 294.06,-646.06 290.96,-649.16 287.86,-649.16"/>
<text text-anchor="middle" x="249.03" y="-637.16" font-family="Helvetica,sans-Serif" font-size="9.00">createLanguage.js</text>
</a>
</g>
</g>
<!-- api/scripts/createLanguage.js&#45;&gt;api/models/Language.js -->
<g id="edge38" class="edge">
<title>api/scripts/createLanguage.js&#45;&gt;api/models/Language.js</title>
<path fill="none" stroke="#000000" stroke-width="2" stroke-opacity="0.200000" d="M294.26,-633.79C300.56,-631.45 306.58,-628.24 311.54,-623.86 345.67,-593.71 357.34,-537.77 361.11,-510.55"/>
<polygon fill="#000000" fill-opacity="0.200000" stroke="#000000" stroke-width="2" stroke-opacity="0.200000" points="363.24,-510.5 361.91,-504.29 359.07,-509.97 363.24,-510.5"/>
</g>
<!-- api/scripts/createNationality.js -->
<g id="node33" class="node">
<title>api/scripts/createNationality.js</title>
<g id="a_node33"><a xlink:href="api/scripts/createNationality.js" xlink:title="createNationality.js">
<path fill="#ffffcc" stroke="black" d="M288.83,-618.16C288.83,-618.16 209.22,-618.16 209.22,-618.16 206.12,-618.16 203.02,-615.06 203.02,-611.96 203.02,-611.96 203.02,-605.76 203.02,-605.76 203.02,-602.66 206.12,-599.56 209.22,-599.56 209.22,-599.56 288.83,-599.56 288.83,-599.56 291.93,-599.56 295.03,-602.66 295.03,-605.76 295.03,-605.76 295.03,-611.96 295.03,-611.96 295.03,-615.06 291.93,-618.16 288.83,-618.16"/>
<text text-anchor="middle" x="249.03" y="-606.16" font-family="Helvetica,sans-Serif" font-size="9.00">createNationality.js</text>
</a>
</g>
</g>
<!-- api/scripts/createNationality.js&#45;&gt;api/models/Nationality.js -->
<g id="edge39" class="edge">
<title>api/scripts/createNationality.js&#45;&gt;api/models/Nationality.js</title>
<path fill="none" stroke="#000000" stroke-width="2" stroke-opacity="0.200000" d="M295.24,-604.16C301.49,-601.65 307.24,-598.04 311.54,-592.86 327.63,-573.5 304.43,-500 319.54,-479.86 321.11,-477.77 322.98,-475.95 325.05,-474.37"/>
<polygon fill="#000000" fill-opacity="0.200000" stroke="#000000" stroke-width="2" stroke-opacity="0.200000" points="326.26,-476.09 330.2,-471.1 324.01,-472.55 326.26,-476.09"/>
</g>
<!-- api/scripts/createUser.js -->
<g id="node34" class="node">
<title>api/scripts/createUser.js</title>
<g id="a_node34"><a xlink:href="api/scripts/createUser.js" xlink:title="createUser.js">
<path fill="#ffffcc" stroke="black" d="M277.33,-556.16C277.33,-556.16 220.73,-556.16 220.73,-556.16 217.63,-556.16 214.53,-553.06 214.53,-549.96 214.53,-549.96 214.53,-543.76 214.53,-543.76 214.53,-540.66 217.63,-537.56 220.73,-537.56 220.73,-537.56 277.33,-537.56 277.33,-537.56 280.43,-537.56 283.53,-540.66 283.53,-543.76 283.53,-543.76 283.53,-549.96 283.53,-549.96 283.53,-553.06 280.43,-556.16 277.33,-556.16"/>
<text text-anchor="middle" x="249.03" y="-544.16" font-family="Helvetica,sans-Serif" font-size="9.00">createUser.js</text>
</a>
</g>
</g>
<!-- api/scripts/createUser.js&#45;&gt;../models/user.js -->
<g id="edge40" class="edge">
<title>api/scripts/createUser.js&#45;&gt;../models/user.js</title>
<path fill="none" stroke="#000000" stroke-width="2" stroke-opacity="0.200000" d="M283.7,-545.77C294.21,-543.65 304.8,-539.32 311.54,-530.86 330.93,-506.51 301.39,-276.15 319.54,-250.86 322.43,-246.84 326.45,-243.82 330.88,-241.57"/>
<polygon fill="#000000" fill-opacity="0.200000" stroke="#000000" stroke-width="2" stroke-opacity="0.200000" points="331.98,-243.38 336.67,-239.09 330.32,-239.52 331.98,-243.38"/>
</g>
<!-- api/scripts/createUserLanguage.js -->
<g id="node35" class="node">
<title>api/scripts/createUserLanguage.js</title>
<g id="a_node35"><a xlink:href="api/scripts/createUserLanguage.js" xlink:title="createUserLanguage.js">
<path fill="#ffffcc" stroke="black" d="M297.35,-680.16C297.35,-680.16 200.7,-680.16 200.7,-680.16 197.6,-680.16 194.5,-677.06 194.5,-673.96 194.5,-673.96 194.5,-667.76 194.5,-667.76 194.5,-664.66 197.6,-661.56 200.7,-661.56 200.7,-661.56 297.35,-661.56 297.35,-661.56 300.45,-661.56 303.55,-664.66 303.55,-667.76 303.55,-667.76 303.55,-673.96 303.55,-673.96 303.55,-677.06 300.45,-680.16 297.35,-680.16"/>
<text text-anchor="middle" x="249.03" y="-668.16" font-family="Helvetica,sans-Serif" font-size="9.00">createUserLanguage.js</text>
</a>
</g>
</g>
<!-- api/scripts/createUserLanguage.js&#45;&gt;api/models/UserLanguage.js -->
<g id="edge41" class="edge">
<title>api/scripts/createUserLanguage.js&#45;&gt;api/models/UserLanguage.js</title>
<path fill="none" stroke="#000000" stroke-width="2" stroke-opacity="0.200000" d="M302.49,-661.52C305.78,-659.67 308.84,-657.47 311.54,-654.86 320.54,-646.16 313.92,-639.04 319.54,-627.86 348.98,-569.29 377.62,-567.93 408.05,-509.86 412.53,-501.3 409.3,-495.56 416.27,-486.77"/>
<polygon fill="#000000" fill-opacity="0.200000" stroke="#000000" stroke-width="2" stroke-opacity="0.200000" points="418,-487.99 420.58,-482.19 414.94,-485.11 418,-487.99"/>
</g>
<!-- api/scripts/sync.js -->
<g id="node36" class="node">
<title>api/scripts/sync.js</title>
<g id="a_node36"><a xlink:href="api/scripts/sync.js" xlink:title="sync.js">
<path fill="#ffffcc" stroke="black" d="M269.83,-587.16C269.83,-587.16 228.23,-587.16 228.23,-587.16 225.13,-587.16 222.03,-584.06 222.03,-580.96 222.03,-580.96 222.03,-574.76 222.03,-574.76 222.03,-571.66 225.13,-568.56 228.23,-568.56 228.23,-568.56 269.83,-568.56 269.83,-568.56 272.93,-568.56 276.03,-571.66 276.03,-574.76 276.03,-574.76 276.03,-580.96 276.03,-580.96 276.03,-584.06 272.93,-587.16 269.83,-587.16"/>
<text text-anchor="middle" x="249.03" y="-575.16" font-family="Helvetica,sans-Serif" font-size="9.00">sync.js</text>
</a>
</g>
</g>
<!-- api/scripts/sync.js&#45;&gt;../models/language -->
<g id="edge43" class="edge">
<title>api/scripts/sync.js&#45;&gt;../models/language</title>
<path fill="none" stroke="#000000" stroke-width="2" stroke-opacity="0.200000" d="M276.26,-577.83C288.89,-576.34 303.09,-572.2 311.54,-561.86 322.03,-549.02 316.16,-429.09 319.54,-412.86 327.39,-375.16 345.44,-333.42 355.56,-311.75"/>
<polygon fill="#000000" fill-opacity="0.200000" stroke="#000000" stroke-width="2" stroke-opacity="0.200000" points="357.53,-312.51 358.2,-306.19 353.73,-310.72 357.53,-312.51"/>
</g>
<!-- api/scripts/sync.js&#45;&gt;../models/nationality -->
<g id="edge44" class="edge">
<title>api/scripts/sync.js&#45;&gt;../models/nationality</title>
<path fill="none" stroke="#000000" stroke-width="2" stroke-opacity="0.200000" d="M276.07,-577.97C288.82,-576.54 303.18,-572.41 311.54,-561.86 323.34,-546.96 308.5,-235.33 319.54,-219.86 322.29,-216.01 326.07,-213.09 330.26,-210.87"/>
<polygon fill="#000000" fill-opacity="0.200000" stroke="#000000" stroke-width="2" stroke-opacity="0.200000" points="331.13,-212.78 335.75,-208.41 329.41,-208.95 331.13,-212.78"/>
</g>
<!-- api/scripts/sync.js&#45;&gt;../models/user -->
<g id="edge45" class="edge">
<title>api/scripts/sync.js&#45;&gt;../models/user</title>
<path fill="none" stroke="#000000" stroke-width="2" stroke-opacity="0.200000" d="M276.05,-577.96C288.79,-576.52 303.15,-572.39 311.54,-561.86 330.93,-537.51 301.39,-307.15 319.54,-281.86 322.43,-277.84 326.45,-274.82 330.88,-272.57"/>
<polygon fill="#000000" fill-opacity="0.200000" stroke="#000000" stroke-width="2" stroke-opacity="0.200000" points="331.98,-274.38 336.67,-270.09 330.32,-270.52 331.98,-274.38"/>
</g>
<!-- api/scripts/sync.js&#45;&gt;api/db/db.js -->
<g id="edge42" class="edge">
<title>api/scripts/sync.js&#45;&gt;api/db/db.js</title>
<path fill="none" stroke="#000000" stroke-width="2" stroke-opacity="0.200000" d="M276.08,-572.03C308.68,-564.89 366.27,-552.77 416.05,-544.86 436.39,-541.63 493.17,-548.08 508.07,-533.86 523.71,-518.92 502.38,-502.6 516.07,-485.86 516.88,-484.87 517.77,-483.95 518.73,-483.11"/>
<polygon fill="#000000" fill-opacity="0.200000" stroke="#000000" stroke-width="2" stroke-opacity="0.200000" points="520.28,-484.59 524,-479.43 517.88,-481.14 520.28,-484.59"/>
</g>
</g>
</svg>
