<?xml version="1.0" encoding="UTF-8" standalone="no"?>
<!DOCTYPE svg PUBLIC "-//W3C//DTD SVG 1.1//EN"
 "http://www.w3.org/Graphics/SVG/1.1/DTD/svg11.dtd">
<!-- Generated by graphviz version 2.44.0 (20200408.0750)
 -->
<!-- Title: dependency&#45;cruiser output Pages: 1 -->
<svg width="675pt" height="907pt"
 viewBox="0.00 0.00 675.33 906.63" xmlns="http://www.w3.org/2000/svg" xmlns:xlink="http://www.w3.org/1999/xlink">
<g id="graph0" class="graph" transform="scale(1 1) rotate(0) translate(4 902.63)">
<title>dependency&#45;cruiser output</title>
<polygon fill="white" stroke="transparent" points="-4,4 -4,-902.63 671.33,-902.63 671.33,4 -4,4"/>
<g id="clust1" class="cluster">
<title>cluster_..</title>
<path fill="#ffffff" stroke="black" stroke-width="2" d="M315.54,-212.63C315.54,-212.63 380.05,-212.63 380.05,-212.63 386.05,-212.63 392.05,-218.63 392.05,-224.63 392.05,-224.63 392.05,-381.63 392.05,-381.63 392.05,-387.63 386.05,-393.63 380.05,-393.63 380.05,-393.63 315.54,-393.63 315.54,-393.63 309.54,-393.63 303.54,-387.63 303.54,-381.63 303.54,-381.63 303.54,-224.63 303.54,-224.63 303.54,-218.63 309.54,-212.63 315.54,-212.63"/>
<text text-anchor="middle" x="347.79" y="-381.53" font-family="Helvetica,sans-Serif" font-weight="bold" font-size="9.00">..</text>
</g>
<g id="clust2" class="cluster">
<title>cluster_../models</title>
<path fill="#ffffff" stroke="black" stroke-width="2" d="M323.54,-220.63C323.54,-220.63 372.05,-220.63 372.05,-220.63 378.05,-220.63 384.05,-226.63 384.05,-232.63 384.05,-232.63 384.05,-354.63 384.05,-354.63 384.05,-360.63 378.05,-366.63 372.05,-366.63 372.05,-366.63 323.54,-366.63 323.54,-366.63 317.54,-366.63 311.54,-360.63 311.54,-354.63 311.54,-354.63 311.54,-232.63 311.54,-232.63 311.54,-226.63 317.54,-220.63 323.54,-220.63"/>
<text text-anchor="middle" x="347.79" y="-354.53" font-family="Helvetica,sans-Serif" font-weight="bold" font-size="9.00">models</text>
</g>
<g id="clust3" class="cluster">
<title>cluster_api</title>
<path fill="#ffffff" stroke="black" stroke-width="2" d="M20,-401.63C20,-401.63 647.33,-401.63 647.33,-401.63 653.33,-401.63 659.33,-407.63 659.33,-413.63 659.33,-413.63 659.33,-878.63 659.33,-878.63 659.33,-884.63 653.33,-890.63 647.33,-890.63 647.33,-890.63 20,-890.63 20,-890.63 14,-890.63 8,-884.63 8,-878.63 8,-878.63 8,-413.63 8,-413.63 8,-407.63 14,-401.63 20,-401.63"/>
<text text-anchor="middle" x="333.66" y="-878.53" font-family="Helvetica,sans-Serif" font-weight="bold" font-size="9.00">api</text>
</g>
<g id="clust4" class="cluster">
<title>cluster_api/config</title>
<path fill="#ffffff" stroke="black" stroke-width="2" d="M90,-409.63C90,-409.63 256.03,-409.63 256.03,-409.63 262.03,-409.63 268.03,-415.63 268.03,-421.63 268.03,-421.63 268.03,-512.63 268.03,-512.63 268.03,-518.63 262.03,-524.63 256.03,-524.63 256.03,-524.63 90,-524.63 90,-524.63 84,-524.63 78,-518.63 78,-512.63 78,-512.63 78,-421.63 78,-421.63 78,-415.63 84,-409.63 90,-409.63"/>
<text text-anchor="middle" x="173.01" y="-512.53" font-family="Helvetica,sans-Serif" font-weight="bold" font-size="9.00">config</text>
</g>
<g id="clust5" class="cluster">
<title>cluster_api/db</title>
<path fill="#ffffff" stroke="black" stroke-width="2" d="M512.07,-566.63C512.07,-566.63 558.07,-566.63 558.07,-566.63 564.07,-566.63 570.07,-572.63 570.07,-578.63 570.07,-578.63 570.07,-607.63 570.07,-607.63 570.07,-613.63 564.07,-619.63 558.07,-619.63 558.07,-619.63 512.07,-619.63 512.07,-619.63 506.07,-619.63 500.07,-613.63 500.07,-607.63 500.07,-607.63 500.07,-578.63 500.07,-578.63 500.07,-572.63 506.07,-566.63 512.07,-566.63"/>
<text text-anchor="middle" x="535.07" y="-607.53" font-family="Helvetica,sans-Serif" font-weight="bold" font-size="9.00">db</text>
</g>
<g id="clust6" class="cluster">
<title>cluster_api/models</title>
<path fill="#ffffff" stroke="black" stroke-width="2" d="M318.29,-530.63C318.29,-530.63 480.07,-530.63 480.07,-530.63 486.07,-530.63 492.07,-536.63 492.07,-542.63 492.07,-542.63 492.07,-633.63 492.07,-633.63 492.07,-639.63 486.07,-645.63 480.07,-645.63 480.07,-645.63 318.29,-645.63 318.29,-645.63 312.29,-645.63 306.29,-639.63 306.29,-633.63 306.29,-633.63 306.29,-542.63 306.29,-542.63 306.29,-536.63 312.29,-530.63 318.29,-530.63"/>
<text text-anchor="middle" x="399.18" y="-633.53" font-family="Helvetica,sans-Serif" font-weight="bold" font-size="9.00">models</text>
</g>
<g id="clust7" class="cluster">
<title>cluster_api/routes</title>
<path fill="#ffffff" stroke="black" stroke-width="2" d="M101.26,-532.63C101.26,-532.63 261.78,-532.63 261.78,-532.63 267.78,-532.63 273.78,-538.63 273.78,-544.63 273.78,-544.63 273.78,-635.63 273.78,-635.63 273.78,-641.63 267.78,-647.63 261.78,-647.63 261.78,-647.63 101.26,-647.63 101.26,-647.63 95.26,-647.63 89.26,-641.63 89.26,-635.63 89.26,-635.63 89.26,-544.63 89.26,-544.63 89.26,-538.63 95.26,-532.63 101.26,-532.63"/>
<text text-anchor="middle" x="181.52" y="-635.53" font-family="Helvetica,sans-Serif" font-weight="bold" font-size="9.00">routes</text>
</g>
<g id="clust8" class="cluster">
<title>cluster_api/scripts</title>
<path fill="#ffffff" stroke="black" stroke-width="2" d="M182.51,-655.63C182.51,-655.63 283.54,-655.63 283.54,-655.63 289.54,-655.63 295.54,-661.63 295.54,-667.63 295.54,-667.63 295.54,-851.63 295.54,-851.63 295.54,-857.63 289.54,-863.63 283.54,-863.63 283.54,-863.63 182.51,-863.63 182.51,-863.63 176.51,-863.63 170.51,-857.63 170.51,-851.63 170.51,-851.63 170.51,-667.63 170.51,-667.63 170.51,-661.63 176.51,-655.63 182.51,-655.63"/>
<text text-anchor="middle" x="233.03" y="-851.53" font-family="Helvetica,sans-Serif" font-weight="bold" font-size="9.00">scripts</text>
</g>
<g id="clust9" class="cluster">
<title>cluster_node_modules</title>
<path fill="#ffffff" stroke="black" stroke-width="2" d="M590.07,-154.63C590.07,-154.63 646.08,-154.63 646.08,-154.63 652.08,-154.63 658.08,-160.63 658.08,-166.63 658.08,-166.63 658.08,-381.63 658.08,-381.63 658.08,-387.63 652.08,-393.63 646.08,-393.63 646.08,-393.63 590.07,-393.63 590.07,-393.63 584.07,-393.63 578.07,-387.63 578.07,-381.63 578.07,-381.63 578.07,-166.63 578.07,-166.63 578.07,-160.63 584.07,-154.63 590.07,-154.63"/>
<text text-anchor="middle" x="618.07" y="-381.53" font-family="Helvetica,sans-Serif" font-weight="bold" font-size="9.00">node_modules</text>
</g>
<!-- ../models/language -->
<g id="node1" class="node">
<title>../models/language</title>
<path fill="#ffffcc" stroke="red" d="M368.59,-339.93C368.59,-339.93 327,-339.93 327,-339.93 323.89,-339.93 320.79,-336.83 320.79,-333.73 320.79,-333.73 320.79,-327.53 320.79,-327.53 320.79,-324.43 323.89,-321.33 327,-321.33 327,-321.33 368.59,-321.33 368.59,-321.33 371.69,-321.33 374.79,-324.43 374.79,-327.53 374.79,-327.53 374.79,-333.73 374.79,-333.73 374.79,-336.83 371.69,-339.93 368.59,-339.93"/>
<text text-anchor="middle" x="347.79" y="-327.93" font-family="Helvetica,sans-Serif" font-size="9.00" fill="red">language</text>
</g>
<!-- ../models/nationality -->
<g id="node2" class="node">
<title>../models/nationality</title>
<path fill="#ffffcc" stroke="red" d="M369.6,-277.93C369.6,-277.93 325.98,-277.93 325.98,-277.93 322.88,-277.93 319.78,-274.83 319.78,-271.73 319.78,-271.73 319.78,-265.53 319.78,-265.53 319.78,-262.43 322.88,-259.33 325.98,-259.33 325.98,-259.33 369.6,-259.33 369.6,-259.33 372.71,-259.33 375.81,-262.43 375.81,-265.53 375.81,-265.53 375.81,-271.73 375.81,-271.73 375.81,-274.83 372.71,-277.93 369.6,-277.93"/>
<text text-anchor="middle" x="347.79" y="-265.93" font-family="Helvetica,sans-Serif" font-size="9.00" fill="red">nationality</text>
</g>
<!-- ../models/user -->
<g id="node3" class="node">
<title>../models/user</title>
<path fill="#ffffcc" stroke="red" d="M368.59,-308.93C368.59,-308.93 327,-308.93 327,-308.93 323.89,-308.93 320.79,-305.83 320.79,-302.73 320.79,-302.73 320.79,-296.53 320.79,-296.53 320.79,-293.43 323.89,-290.33 327,-290.33 327,-290.33 368.59,-290.33 368.59,-290.33 371.69,-290.33 374.79,-293.43 374.79,-296.53 374.79,-296.53 374.79,-302.73 374.79,-302.73 374.79,-305.83 371.69,-308.93 368.59,-308.93"/>
<text text-anchor="middle" x="347.79" y="-296.93" font-family="Helvetica,sans-Serif" font-size="9.00" fill="red">user</text>
</g>
<!-- ../models/user.js -->
<g id="node4" class="node">
<title>../models/user.js</title>
<path fill="#ffffcc" stroke="red" d="M368.59,-246.93C368.59,-246.93 327,-246.93 327,-246.93 323.89,-246.93 320.79,-243.83 320.79,-240.73 320.79,-240.73 320.79,-234.53 320.79,-234.53 320.79,-231.43 323.89,-228.33 327,-228.33 327,-228.33 368.59,-228.33 368.59,-228.33 371.69,-228.33 374.79,-231.43 374.79,-234.53 374.79,-234.53 374.79,-240.73 374.79,-240.73 374.79,-243.83 371.69,-246.93 368.59,-246.93"/>
<text text-anchor="middle" x="347.79" y="-234.93" font-family="Helvetica,sans-Serif" font-size="9.00" fill="red">user.js</text>
</g>
<!-- ./language.js -->
<g id="node5" class="node">
<title>./language.js</title>
<path fill="#ffffcc" stroke="red" d="M466.87,-393.93C466.87,-393.93 417.24,-393.93 417.24,-393.93 414.14,-393.93 411.04,-390.83 411.04,-387.73 411.04,-387.73 411.04,-381.53 411.04,-381.53 411.04,-378.43 414.14,-375.33 417.24,-375.33 417.24,-375.33 466.87,-375.33 466.87,-375.33 469.98,-375.33 473.08,-378.43 473.08,-381.53 473.08,-381.53 473.08,-387.73 473.08,-387.73 473.08,-390.83 469.98,-393.93 466.87,-393.93"/>
<text text-anchor="middle" x="442.06" y="-381.93" font-family="Helvetica,sans-Serif" font-size="9.00" fill="red">language.js</text>
</g>
<!-- ./nationality.js -->
<g id="node6" class="node">
<title>./nationality.js</title>
<path fill="#ffffcc" stroke="red" d="M468.37,-362.93C468.37,-362.93 415.75,-362.93 415.75,-362.93 412.65,-362.93 409.55,-359.83 409.55,-356.73 409.55,-356.73 409.55,-350.53 409.55,-350.53 409.55,-347.43 412.65,-344.33 415.75,-344.33 415.75,-344.33 468.37,-344.33 468.37,-344.33 471.47,-344.33 474.57,-347.43 474.57,-350.53 474.57,-350.53 474.57,-356.73 474.57,-356.73 474.57,-359.83 471.47,-362.93 468.37,-362.93"/>
<text text-anchor="middle" x="442.06" y="-350.93" font-family="Helvetica,sans-Serif" font-size="9.00" fill="red">nationality.js</text>
</g>
<!-- api/config/default.js -->
<g id="node7" class="node">
<title>api/config/default.js</title>
<g id="a_node7"><a xlink:href="api/config/default.js" xlink:title="default.js">
<path fill="#ffffcc" stroke="black" d="M253.83,-450.93C253.83,-450.93 212.23,-450.93 212.23,-450.93 209.13,-450.93 206.03,-447.83 206.03,-444.73 206.03,-444.73 206.03,-438.53 206.03,-438.53 206.03,-435.43 209.13,-432.33 212.23,-432.33 212.23,-432.33 253.83,-432.33 253.83,-432.33 256.93,-432.33 260.03,-435.43 260.03,-438.53 260.03,-438.53 260.03,-444.73 260.03,-444.73 260.03,-447.83 256.93,-450.93 253.83,-450.93"/>
<text text-anchor="middle" x="233.03" y="-438.93" font-family="Helvetica,sans-Serif" font-size="9.00">default.js</text>
</a>
</g>
</g>
<!-- path -->
<g id="node8" class="node">
<title>path</title>
<path fill="#ffffcc" stroke="grey" d="M368.59,-152.93C368.59,-152.93 327,-152.93 327,-152.93 323.89,-152.93 320.79,-149.83 320.79,-146.73 320.79,-146.73 320.79,-140.53 320.79,-140.53 320.79,-137.43 323.89,-134.33 327,-134.33 327,-134.33 368.59,-134.33 368.59,-134.33 371.69,-134.33 374.79,-137.43 374.79,-140.53 374.79,-140.53 374.79,-146.73 374.79,-146.73 374.79,-149.83 371.69,-152.93 368.59,-152.93"/>
<text text-anchor="middle" x="347.79" y="-140.93" font-family="Helvetica,sans-Serif" font-size="9.00" fill="grey">path</text>
</g>
<!-- api/config/default.js&#45;&gt;path -->
<g id="edge1" class="edge">
<title>api/config/default.js&#45;&gt;path</title>
<path fill="none" stroke="#000000" stroke-dasharray="5,2" stroke-opacity="0.200000" d="M233.52,-432.07C232.01,-393.26 231.4,-245.58 303.54,-161.63 306.67,-157.99 310.66,-155.07 314.94,-152.73"/>
<polygon fill="#000000" fill-opacity="0.200000" stroke="#000000" stroke-opacity="0.200000" points="315.98,-154.56 320.49,-150.07 314.17,-150.78 315.98,-154.56"/>
</g>
<!-- api/config/development.js -->
<g id="node9" class="node">
<title>api/config/development.js</title>
<g id="a_node9"><a xlink:href="api/config/development.js" xlink:title="development.js">
<path fill="#ccffcc" stroke="black" d="M156.07,-497.93C156.07,-497.93 92.44,-497.93 92.44,-497.93 89.34,-497.93 86.24,-494.83 86.24,-491.73 86.24,-491.73 86.24,-485.53 86.24,-485.53 86.24,-482.43 89.34,-479.33 92.44,-479.33 92.44,-479.33 156.07,-479.33 156.07,-479.33 159.17,-479.33 162.27,-482.43 162.27,-485.53 162.27,-485.53 162.27,-491.73 162.27,-491.73 162.27,-494.83 159.17,-497.93 156.07,-497.93"/>
<text text-anchor="middle" x="124.26" y="-485.93" font-family="Helvetica,sans-Serif" font-size="9.00">development.js</text>
</a>
</g>
</g>
<!-- api/config/index.js -->
<g id="node10" class="node">
<title>api/config/index.js</title>
<g id="a_node10"><a xlink:href="api/config/index.js" xlink:title="index.js">
<path fill="#ffffcc" stroke="black" d="M145.06,-466.93C145.06,-466.93 103.46,-466.93 103.46,-466.93 100.36,-466.93 97.26,-463.83 97.26,-460.73 97.26,-460.73 97.26,-454.53 97.26,-454.53 97.26,-451.43 100.36,-448.33 103.46,-448.33 103.46,-448.33 145.06,-448.33 145.06,-448.33 148.16,-448.33 151.26,-451.43 151.26,-454.53 151.26,-454.53 151.26,-460.73 151.26,-460.73 151.26,-463.83 148.16,-466.93 145.06,-466.93"/>
<text text-anchor="middle" x="124.26" y="-454.93" font-family="Helvetica,sans-Serif" font-size="9.00">index.js</text>
</a>
</g>
</g>
<!-- api/config/index.js&#45;&gt;api/config/default.js -->
<g id="edge2" class="edge">
<title>api/config/index.js&#45;&gt;api/config/default.js</title>
<path fill="none" stroke="#000000" stroke-width="2" stroke-opacity="0.200000" d="M151.38,-453.72C165.98,-451.53 184.31,-448.78 199.8,-446.46"/>
<polygon fill="#000000" fill-opacity="0.200000" stroke="#000000" stroke-width="2" stroke-opacity="0.200000" points="200.19,-448.53 205.81,-445.56 199.56,-444.37 200.19,-448.53"/>
</g>
<!-- api/config/production.js -->
<g id="node11" class="node">
<title>api/config/production.js</title>
<g id="a_node11"><a xlink:href="api/config/production.js" xlink:title="production.js">
<path fill="#ccffcc" stroke="black" d="M151.57,-435.93C151.57,-435.93 96.95,-435.93 96.95,-435.93 93.85,-435.93 90.75,-432.83 90.75,-429.73 90.75,-429.73 90.75,-423.53 90.75,-423.53 90.75,-420.43 93.85,-417.33 96.95,-417.33 96.95,-417.33 151.57,-417.33 151.57,-417.33 154.67,-417.33 157.77,-420.43 157.77,-423.53 157.77,-423.53 157.77,-429.73 157.77,-429.73 157.77,-432.83 154.67,-435.93 151.57,-435.93"/>
<text text-anchor="middle" x="124.26" y="-423.93" font-family="Helvetica,sans-Serif" font-size="9.00">production.js</text>
</a>
</g>
</g>
<!-- api/db/db.js -->
<g id="node12" class="node">
<title>api/db/db.js</title>
<g id="a_node12"><a xlink:href="api/db/db.js" xlink:title="db.js">
<path fill="#ffffcc" stroke="black" d="M555.87,-592.93C555.87,-592.93 514.27,-592.93 514.27,-592.93 511.17,-592.93 508.07,-589.83 508.07,-586.73 508.07,-586.73 508.07,-580.53 508.07,-580.53 508.07,-577.43 511.17,-574.33 514.27,-574.33 514.27,-574.33 555.87,-574.33 555.87,-574.33 558.97,-574.33 562.07,-577.43 562.07,-580.53 562.07,-580.53 562.07,-586.73 562.07,-586.73 562.07,-589.83 558.97,-592.93 555.87,-592.93"/>
<text text-anchor="middle" x="535.07" y="-580.93" font-family="Helvetica,sans-Serif" font-size="9.00">db.js</text>
</a>
</g>
</g>
<!-- api/env&#45;config.js -->
<g id="node13" class="node">
<title>api/env&#45;config.js</title>
<g id="a_node13"><a xlink:href="api/env-config.js" xlink:title="env&#45;config.js">
<path fill="#ffffcc" stroke="black" d="M644.88,-592.93C644.88,-592.93 591.26,-592.93 591.26,-592.93 588.16,-592.93 585.06,-589.83 585.06,-586.73 585.06,-586.73 585.06,-580.53 585.06,-580.53 585.06,-577.43 588.16,-574.33 591.26,-574.33 591.26,-574.33 644.88,-574.33 644.88,-574.33 647.98,-574.33 651.08,-577.43 651.08,-580.53 651.08,-580.53 651.08,-586.73 651.08,-586.73 651.08,-589.83 647.98,-592.93 644.88,-592.93"/>
<text text-anchor="middle" x="618.07" y="-580.93" font-family="Helvetica,sans-Serif" font-size="9.00">env&#45;config.js</text>
</a>
</g>
</g>
<!-- api/db/db.js&#45;&gt;api/env&#45;config.js -->
<g id="edge3" class="edge">
<title>api/db/db.js&#45;&gt;api/env&#45;config.js</title>
<path fill="none" stroke="#000000" stroke-width="2" stroke-opacity="0.200000" d="M562.14,-583.63C567.44,-583.63 573.12,-583.63 578.74,-583.63"/>
<polygon fill="#000000" fill-opacity="0.200000" stroke="#000000" stroke-width="2" stroke-opacity="0.200000" points="578.8,-585.73 584.8,-583.63 578.8,-581.53 578.8,-585.73"/>
</g>
<!-- node_modules/sequelize -->
<g id="node14" class="node">
<title>node_modules/sequelize</title>
<g id="a_node14"><a xlink:href="node_modules/sequelize" xlink:title="sequelize">
<polygon fill="#c40b0a" fill-opacity="0.101961" stroke="black" points="645.08,-335.93 593.13,-335.93 591.06,-333.87 591.06,-317.33 643.01,-317.33 645.08,-319.4 645.08,-335.93"/>
<polyline fill="none" stroke="black" points="643.01,-333.87 591.06,-333.87 "/>
<polyline fill="none" stroke="black" points="643.01,-333.87 643.01,-317.33 "/>
<polyline fill="none" stroke="black" points="643.01,-333.87 645.08,-335.93 "/>
<text text-anchor="middle" x="618.07" y="-323.93" font-family="Helvetica,sans-Serif" font-size="9.00" fill="#c40b0a">sequelize</text>
</a>
</g>
</g>
<!-- api/db/db.js&#45;&gt;node_modules/sequelize -->
<g id="edge4" class="edge">
<title>api/db/db.js&#45;&gt;node_modules/sequelize</title>
<path fill="none" stroke="#000000" stroke-opacity="0.200000" d="M544.29,-574.27C552.53,-564.26 564.73,-547.52 570.07,-530.63 576.38,-510.7 566.06,-359.75 578.07,-342.63 580.01,-339.86 582.53,-337.57 585.34,-335.68"/>
<polygon fill="#000000" fill-opacity="0.200000" stroke="#000000" stroke-opacity="0.200000" points="586.48,-337.45 590.68,-332.67 584.42,-333.79 586.48,-337.45"/>
</g>
<!-- node_modules/dotenv -->
<g id="node15" class="node">
<title>node_modules/dotenv</title>
<g id="a_node15"><a xlink:href="node_modules/dotenv" xlink:title="dotenv">
<polygon fill="#c40b0a" fill-opacity="0.101961" stroke="black" points="645.07,-366.93 593.14,-366.93 591.07,-364.87 591.07,-348.33 643,-348.33 645.07,-350.4 645.07,-366.93"/>
<polyline fill="none" stroke="black" points="643,-364.87 591.07,-364.87 "/>
<polyline fill="none" stroke="black" points="643,-364.87 643,-348.33 "/>
<polyline fill="none" stroke="black" points="643,-364.87 645.07,-366.93 "/>
<text text-anchor="middle" x="618.07" y="-354.93" font-family="Helvetica,sans-Serif" font-size="9.00" fill="#c40b0a">dotenv</text>
</a>
</g>
</g>
<!-- api/env&#45;config.js&#45;&gt;node_modules/dotenv -->
<g id="edge5" class="edge">
<title>api/env&#45;config.js&#45;&gt;node_modules/dotenv</title>
<path fill="none" stroke="#000000" stroke-opacity="0.200000" d="M614.74,-573.92C592.84,-507.08 592.2,-440.24 612.82,-373.4"/>
<polygon fill="#000000" fill-opacity="0.200000" stroke="#000000" stroke-opacity="0.200000" points="614.92,-373.7 614.74,-367.34 610.92,-372.43 614.92,-373.7"/>
<path fill="none" stroke="#000000" stroke-opacity="0.200000" d="M621.4,-573.92C643.3,-507.08 643.94,-440.24 623.33,-373.4"/>
<polygon fill="#000000" fill-opacity="0.200000" stroke="#000000" stroke-opacity="0.200000" points="625.22,-372.43 621.4,-367.34 621.22,-373.7 625.22,-372.43"/>
</g>
<!-- api/index.js -->
<g id="node16" class="node">
<title>api/index.js</title>
<g id="a_node16"><a xlink:href="api/index.js" xlink:title="index.js">
<path fill="#ffffcc" stroke="black" d="M63.8,-427.93C63.8,-427.93 22.2,-427.93 22.2,-427.93 19.1,-427.93 16,-424.83 16,-421.73 16,-421.73 16,-415.53 16,-415.53 16,-412.43 19.1,-409.33 22.2,-409.33 22.2,-409.33 63.8,-409.33 63.8,-409.33 66.9,-409.33 70,-412.43 70,-415.53 70,-415.53 70,-421.73 70,-421.73 70,-424.83 66.9,-427.93 63.8,-427.93"/>
<text text-anchor="middle" x="43" y="-415.93" font-family="Helvetica,sans-Serif" font-size="9.00">index.js</text>
</a>
</g>
</g>
<!-- api/index.js&#45;&gt;path -->
<g id="edge13" class="edge">
<title>api/index.js&#45;&gt;path</title>
<path fill="none" stroke="#000000" stroke-dasharray="5,2" stroke-opacity="0.200000" d="M49.7,-409.16C56.03,-398.95 66.85,-382.44 78,-369.63 167.53,-266.78 188.71,-235.18 303.54,-161.63 307.04,-159.39 310.86,-157.33 314.74,-155.46"/>
<polygon fill="#000000" fill-opacity="0.200000" stroke="#000000" stroke-opacity="0.200000" points="315.84,-157.27 320.43,-152.87 314.1,-153.45 315.84,-157.27"/>
</g>
<!-- api/index.js&#45;&gt;api/config/index.js -->
<g id="edge6" class="edge">
<title>api/index.js&#45;&gt;api/config/index.js</title>
<path fill="none" stroke="#000000" stroke-width="2" stroke-opacity="0.200000" d="M56.13,-427.95C62.42,-432.49 70.36,-437.78 78,-441.63 82.19,-443.74 86.72,-445.7 91.24,-447.47"/>
<polygon fill="#000000" fill-opacity="0.200000" stroke="#000000" stroke-width="2" stroke-opacity="0.200000" points="90.58,-449.46 96.94,-449.6 92.05,-445.53 90.58,-449.46"/>
</g>
<!-- api/routes/index.js -->
<g id="node17" class="node">
<title>api/routes/index.js</title>
<g id="a_node17"><a xlink:href="api/routes/index.js" xlink:title="index.js">
<path fill="#ffffcc" stroke="black" d="M145.06,-558.93C145.06,-558.93 103.46,-558.93 103.46,-558.93 100.36,-558.93 97.26,-555.83 97.26,-552.73 97.26,-552.73 97.26,-546.53 97.26,-546.53 97.26,-543.43 100.36,-540.33 103.46,-540.33 103.46,-540.33 145.06,-540.33 145.06,-540.33 148.16,-540.33 151.26,-543.43 151.26,-546.53 151.26,-546.53 151.26,-552.73 151.26,-552.73 151.26,-555.83 148.16,-558.93 145.06,-558.93"/>
<text text-anchor="middle" x="124.26" y="-546.93" font-family="Helvetica,sans-Serif" font-size="9.00">index.js</text>
</a>
</g>
</g>
<!-- api/index.js&#45;&gt;api/routes/index.js -->
<g id="edge7" class="edge">
<title>api/index.js&#45;&gt;api/routes/index.js</title>
<path fill="none" stroke="#000000" stroke-width="2" stroke-opacity="0.200000" d="M44.48,-427.99C46,-448.45 52.28,-497.73 78,-527.63 81.68,-531.91 86.39,-535.43 91.37,-538.31"/>
<polygon fill="#000000" fill-opacity="0.200000" stroke="#000000" stroke-width="2" stroke-opacity="0.200000" points="90.55,-540.25 96.84,-541.17 92.5,-536.53 90.55,-540.25"/>
</g>
<!-- node_modules/body&#45;parser -->
<g id="node18" class="node">
<title>node_modules/body&#45;parser</title>
<g id="a_node18"><a xlink:href="node_modules/body-parser" xlink:title="body&#45;parser">
<polygon fill="#c40b0a" fill-opacity="0.101961" stroke="black" points="650.08,-211.93 588.13,-211.93 586.06,-209.87 586.06,-193.33 648.01,-193.33 650.08,-195.4 650.08,-211.93"/>
<polyline fill="none" stroke="black" points="648.01,-209.87 586.06,-209.87 "/>
<polyline fill="none" stroke="black" points="648.01,-209.87 648.01,-193.33 "/>
<polyline fill="none" stroke="black" points="648.01,-209.87 650.08,-211.93 "/>
<text text-anchor="middle" x="618.07" y="-199.93" font-family="Helvetica,sans-Serif" font-size="9.00" fill="#c40b0a">body&#45;parser</text>
</a>
</g>
</g>
<!-- api/index.js&#45;&gt;node_modules/body&#45;parser -->
<g id="edge8" class="edge">
<title>api/index.js&#45;&gt;node_modules/body&#45;parser</title>
<path fill="none" stroke="#000000" stroke-opacity="0.200000" d="M44.22,-409.11C45.54,-354.9 53.3,-86.69 78,-60.63 125.62,-10.4 162.81,-37.63 232.03,-37.63 232.03,-37.63 232.03,-37.63 443.06,-37.63 500.07,-37.63 531.39,-13.74 570.07,-55.63 589.85,-77.06 561.09,-162.92 578.07,-186.63 578.84,-187.7 579.69,-188.7 580.61,-189.64"/>
<polygon fill="#000000" fill-opacity="0.200000" stroke="#000000" stroke-opacity="0.200000" points="579.73,-191.63 585.72,-193.77 582.37,-188.36 579.73,-191.63"/>
</g>
<!-- node_modules/cors -->
<g id="node19" class="node">
<title>node_modules/cors</title>
<g id="a_node19"><a xlink:href="node_modules/cors" xlink:title="cors">
<polygon fill="#c40b0a" fill-opacity="0.101961" stroke="black" points="645.07,-180.93 593.14,-180.93 591.07,-178.87 591.07,-162.33 643,-162.33 645.07,-164.4 645.07,-180.93"/>
<polyline fill="none" stroke="black" points="643,-178.87 591.07,-178.87 "/>
<polyline fill="none" stroke="black" points="643,-178.87 643,-162.33 "/>
<polyline fill="none" stroke="black" points="643,-178.87 645.07,-180.93 "/>
<text text-anchor="middle" x="618.07" y="-168.93" font-family="Helvetica,sans-Serif" font-size="9.00" fill="#c40b0a">cors</text>
</a>
</g>
</g>
<!-- api/index.js&#45;&gt;node_modules/cors -->
<g id="edge9" class="edge">
<title>api/index.js&#45;&gt;node_modules/cors</title>
<path fill="none" stroke="#000000" stroke-opacity="0.200000" d="M44.11,-409.32C44.87,-352.57 50.19,-54.74 78,-26.63 126.38,22.26 163.25,-11.63 232.03,-11.63 232.03,-11.63 232.03,-11.63 443.06,-11.63 499.95,-11.63 526.2,8.6 570.07,-27.63 609.28,-60.02 616.07,-125.64 617.05,-155.81"/>
<polygon fill="#000000" fill-opacity="0.200000" stroke="#000000" stroke-opacity="0.200000" points="614.95,-156.06 617.18,-162.02 619.15,-155.97 614.95,-156.06"/>
</g>
<!-- node_modules/express -->
<g id="node20" class="node">
<title>node_modules/express</title>
<g id="a_node20"><a xlink:href="node_modules/express" xlink:title="express">
<polygon fill="#c40b0a" fill-opacity="0.101961" stroke="black" points="645.07,-273.93 593.14,-273.93 591.07,-271.87 591.07,-255.33 643,-255.33 645.07,-257.4 645.07,-273.93"/>
<polyline fill="none" stroke="black" points="643,-271.87 591.07,-271.87 "/>
<polyline fill="none" stroke="black" points="643,-271.87 643,-255.33 "/>
<polyline fill="none" stroke="black" points="643,-271.87 645.07,-273.93 "/>
<text text-anchor="middle" x="618.07" y="-261.93" font-family="Helvetica,sans-Serif" font-size="9.00" fill="#c40b0a">express</text>
</a>
</g>
</g>
<!-- api/index.js&#45;&gt;node_modules/express -->
<g id="edge10" class="edge">
<title>api/index.js&#45;&gt;node_modules/express</title>
<path fill="none" stroke="#000000" stroke-opacity="0.200000" d="M44.74,-409.14C49.52,-355.2 80.71,-89.63 232.03,-89.63 232.03,-89.63 232.03,-89.63 443.06,-89.63 502.24,-89.63 533.48,-83.11 570.07,-129.63 586.45,-150.47 562.58,-227.13 578.07,-248.63 580.05,-251.38 582.58,-253.66 585.41,-255.54"/>
<polygon fill="#000000" fill-opacity="0.200000" stroke="#000000" stroke-opacity="0.200000" points="584.5,-257.44 590.76,-258.53 586.55,-253.77 584.5,-257.44"/>
</g>
<!-- fs -->
<g id="node21" class="node">
<title>fs</title>
<path fill="#ffffcc" stroke="grey" d="M145.06,-393.93C145.06,-393.93 103.46,-393.93 103.46,-393.93 100.36,-393.93 97.26,-390.83 97.26,-387.73 97.26,-387.73 97.26,-381.53 97.26,-381.53 97.26,-378.43 100.36,-375.33 103.46,-375.33 103.46,-375.33 145.06,-375.33 145.06,-375.33 148.16,-375.33 151.26,-378.43 151.26,-381.53 151.26,-381.53 151.26,-387.73 151.26,-387.73 151.26,-390.83 148.16,-393.93 145.06,-393.93"/>
<text text-anchor="middle" x="124.26" y="-381.93" font-family="Helvetica,sans-Serif" font-size="9.00" fill="grey">fs</text>
</g>
<!-- api/index.js&#45;&gt;fs -->
<g id="edge11" class="edge">
<title>api/index.js&#45;&gt;fs</title>
<path fill="none" stroke="#000000" stroke-dasharray="5,2" stroke-opacity="0.200000" d="M66.08,-409.16C75.34,-405.19 86.21,-400.52 95.97,-396.34"/>
<polygon fill="#000000" fill-opacity="0.200000" stroke="#000000" stroke-opacity="0.200000" points="96.89,-398.23 101.57,-393.94 95.23,-394.37 96.89,-398.23"/>
</g>
<!-- node_modules/morgan -->
<g id="node22" class="node">
<title>node_modules/morgan</title>
<g id="a_node22"><a xlink:href="node_modules/morgan" xlink:title="morgan">
<polygon fill="#c40b0a" fill-opacity="0.101961" stroke="black" points="645.07,-242.93 593.14,-242.93 591.07,-240.87 591.07,-224.33 643,-224.33 645.07,-226.4 645.07,-242.93"/>
<polyline fill="none" stroke="black" points="643,-240.87 591.07,-240.87 "/>
<polyline fill="none" stroke="black" points="643,-240.87 643,-224.33 "/>
<polyline fill="none" stroke="black" points="643,-240.87 645.07,-242.93 "/>
<text text-anchor="middle" x="618.07" y="-230.93" font-family="Helvetica,sans-Serif" font-size="9.00" fill="#c40b0a">morgan</text>
</a>
</g>
</g>
<!-- api/index.js&#45;&gt;node_modules/morgan -->
<g id="edge12" class="edge">
<title>api/index.js&#45;&gt;node_modules/morgan</title>
<path fill="none" stroke="#000000" stroke-opacity="0.200000" d="M44.42,-409.17C46.69,-359.7 58.17,-132.28 78,-108.63 123.83,-53.99 160.71,-63.63 232.03,-63.63 232.03,-63.63 232.03,-63.63 443.06,-63.63 500.43,-63.63 531.97,-43.74 570.07,-86.63 589.44,-108.44 561.09,-193.92 578.07,-217.63 580.04,-220.39 582.57,-222.67 585.4,-224.55"/>
<polygon fill="#000000" fill-opacity="0.200000" stroke="#000000" stroke-opacity="0.200000" points="584.48,-226.45 590.74,-227.55 586.53,-222.78 584.48,-226.45"/>
</g>
<!-- api/routes/index.js&#45;&gt;node_modules/express -->
<g id="edge28" class="edge">
<title>api/routes/index.js&#45;&gt;node_modules/express</title>
<path fill="none" stroke="#000000" stroke-opacity="0.200000" d="M149.02,-540.23C154.3,-537.02 159.29,-532.88 162.51,-527.63 176.64,-504.68 163.69,-432.7 170.51,-406.63 205.22,-274.13 187.65,-201.65 303.54,-128.63 356.59,-95.21 550.06,-136.99 570.07,-158.63 583.7,-173.38 566.16,-232.47 578.07,-248.63 580.08,-251.36 582.63,-253.62 585.47,-255.5"/>
<polygon fill="#000000" fill-opacity="0.200000" stroke="#000000" stroke-opacity="0.200000" points="584.57,-257.4 590.83,-258.48 586.61,-253.73 584.57,-257.4"/>
</g>
<!-- api/routes/nationality.js -->
<g id="node27" class="node">
<title>api/routes/nationality.js</title>
<g id="a_node27"><a xlink:href="api/routes/nationality.js" xlink:title="nationality.js">
<path fill="#ffffcc" stroke="black" d="M259.34,-620.93C259.34,-620.93 206.72,-620.93 206.72,-620.93 203.62,-620.93 200.52,-617.83 200.52,-614.73 200.52,-614.73 200.52,-608.53 200.52,-608.53 200.52,-605.43 203.62,-602.33 206.72,-602.33 206.72,-602.33 259.34,-602.33 259.34,-602.33 262.44,-602.33 265.54,-605.43 265.54,-608.53 265.54,-608.53 265.54,-614.73 265.54,-614.73 265.54,-617.83 262.44,-620.93 259.34,-620.93"/>
<text text-anchor="middle" x="233.03" y="-608.93" font-family="Helvetica,sans-Serif" font-size="9.00">nationality.js</text>
</a>
</g>
</g>
<!-- api/routes/index.js&#45;&gt;api/routes/nationality.js -->
<g id="edge25" class="edge">
<title>api/routes/index.js&#45;&gt;api/routes/nationality.js</title>
<path fill="none" stroke="#000000" stroke-width="2" stroke-opacity="0.200000" d="M132.13,-559.24C140.16,-569.75 154.41,-586.33 170.51,-595.63 177.75,-599.81 186.08,-602.92 194.23,-605.22"/>
<polygon fill="#000000" fill-opacity="0.200000" stroke="#000000" stroke-width="2" stroke-opacity="0.200000" points="194.07,-607.35 200.41,-606.83 195.13,-603.29 194.07,-607.35"/>
</g>
<!-- api/routes/resource.js -->
<g id="node28" class="node">
<title>api/routes/resource.js</title>
<g id="a_node28"><a xlink:href="api/routes/resource.js" xlink:title="resource.js">
<path fill="#ffffcc" stroke="black" d="M256.83,-558.93C256.83,-558.93 209.23,-558.93 209.23,-558.93 206.12,-558.93 203.02,-555.83 203.02,-552.73 203.02,-552.73 203.02,-546.53 203.02,-546.53 203.02,-543.43 206.12,-540.33 209.23,-540.33 209.23,-540.33 256.83,-540.33 256.83,-540.33 259.93,-540.33 263.03,-543.43 263.03,-546.53 263.03,-546.53 263.03,-552.73 263.03,-552.73 263.03,-555.83 259.93,-558.93 256.83,-558.93"/>
<text text-anchor="middle" x="233.03" y="-546.93" font-family="Helvetica,sans-Serif" font-size="9.00">resource.js</text>
</a>
</g>
</g>
<!-- api/routes/index.js&#45;&gt;api/routes/resource.js -->
<g id="edge26" class="edge">
<title>api/routes/index.js&#45;&gt;api/routes/resource.js</title>
<path fill="none" stroke="#000000" stroke-width="2" stroke-opacity="0.200000" d="M151.38,-549.63C164.99,-549.63 181.84,-549.63 196.6,-549.63"/>
<polygon fill="#000000" fill-opacity="0.200000" stroke="#000000" stroke-width="2" stroke-opacity="0.200000" points="196.79,-551.73 202.79,-549.63 196.79,-547.53 196.79,-551.73"/>
</g>
<!-- api/routes/user.js -->
<g id="node29" class="node">
<title>api/routes/user.js</title>
<g id="a_node29"><a xlink:href="api/routes/user.js" xlink:title="user.js">
<path fill="#ffffcc" stroke="black" d="M253.83,-589.93C253.83,-589.93 212.23,-589.93 212.23,-589.93 209.13,-589.93 206.03,-586.83 206.03,-583.73 206.03,-583.73 206.03,-577.53 206.03,-577.53 206.03,-574.43 209.13,-571.33 212.23,-571.33 212.23,-571.33 253.83,-571.33 253.83,-571.33 256.93,-571.33 260.03,-574.43 260.03,-577.53 260.03,-577.53 260.03,-583.73 260.03,-583.73 260.03,-586.83 256.93,-589.93 253.83,-589.93"/>
<text text-anchor="middle" x="233.03" y="-577.93" font-family="Helvetica,sans-Serif" font-size="9.00">user.js</text>
</a>
</g>
</g>
<!-- api/routes/index.js&#45;&gt;api/routes/user.js -->
<g id="edge27" class="edge">
<title>api/routes/index.js&#45;&gt;api/routes/user.js</title>
<path fill="none" stroke="#000000" stroke-width="2" stroke-opacity="0.200000" d="M151.49,-558.65C157.7,-560.7 164.32,-562.8 170.51,-564.63 179.98,-567.43 190.33,-570.22 199.8,-572.68"/>
<polygon fill="#000000" fill-opacity="0.200000" stroke="#000000" stroke-width="2" stroke-opacity="0.200000" points="199.55,-574.78 205.88,-574.24 200.59,-570.71 199.55,-574.78"/>
</g>
<!-- api/models/Language.js -->
<g id="node23" class="node">
<title>api/models/Language.js</title>
<g id="a_node23"><a xlink:href="api/models/Language.js" xlink:title="Language.js">
<path fill="#ffffcc" stroke="black" d="M374.12,-587.93C374.12,-587.93 321.47,-587.93 321.47,-587.93 318.37,-587.93 315.27,-584.83 315.27,-581.73 315.27,-581.73 315.27,-575.53 315.27,-575.53 315.27,-572.43 318.37,-569.33 321.47,-569.33 321.47,-569.33 374.12,-569.33 374.12,-569.33 377.22,-569.33 380.32,-572.43 380.32,-575.53 380.32,-575.53 380.32,-581.73 380.32,-581.73 380.32,-584.83 377.22,-587.93 374.12,-587.93"/>
<text text-anchor="middle" x="347.79" y="-575.93" font-family="Helvetica,sans-Serif" font-size="9.00">Language.js</text>
</a>
</g>
</g>
<!-- api/models/Language.js&#45;&gt;api/db/db.js -->
<g id="edge14" class="edge">
<title>api/models/Language.js&#45;&gt;api/db/db.js</title>
<path fill="none" stroke="#000000" stroke-width="2" stroke-opacity="0.200000" d="M375.51,-588C381.02,-590.07 386.76,-592.34 392.05,-594.63 395.7,-596.21 396.18,-597.72 400.05,-598.63 439.85,-608.03 451.77,-605.61 492.07,-598.63 494.81,-598.16 499.33,-596.76 504.42,-595.01"/>
<polygon fill="#000000" fill-opacity="0.200000" stroke="#000000" stroke-width="2" stroke-opacity="0.200000" points="505.15,-596.97 510.09,-592.98 503.74,-593.02 505.15,-596.97"/>
</g>
<!-- api/models/Language.js&#45;&gt;node_modules/sequelize -->
<g id="edge15" class="edge">
<title>api/models/Language.js&#45;&gt;node_modules/sequelize</title>
<path fill="none" stroke="#000000" stroke-opacity="0.200000" d="M380.46,-571.78C384.93,-569.54 389.03,-566.57 392.05,-562.63 403.74,-547.41 389.48,-492.66 400.05,-476.63 425.67,-437.77 451.57,-449.57 492.07,-426.63 527.09,-406.8 546.59,-413.32 570.07,-380.63 580.13,-366.61 567.02,-355.89 578.07,-342.63 580.18,-340.1 582.75,-337.97 585.56,-336.17"/>
<polygon fill="#000000" fill-opacity="0.200000" stroke="#000000" stroke-opacity="0.200000" points="586.57,-338 590.82,-333.27 584.55,-334.32 586.57,-338"/>
</g>
<!-- api/models/Nationality.js -->
<g id="node24" class="node">
<title>api/models/Nationality.js</title>
<g id="a_node24"><a xlink:href="api/models/Nationality.js" xlink:title="Nationality.js">
<path fill="#ffffcc" stroke="black" d="M375.09,-618.93C375.09,-618.93 320.49,-618.93 320.49,-618.93 317.39,-618.93 314.29,-615.83 314.29,-612.73 314.29,-612.73 314.29,-606.53 314.29,-606.53 314.29,-603.43 317.39,-600.33 320.49,-600.33 320.49,-600.33 375.09,-600.33 375.09,-600.33 378.2,-600.33 381.3,-603.43 381.3,-606.53 381.3,-606.53 381.3,-612.73 381.3,-612.73 381.3,-615.83 378.2,-618.93 375.09,-618.93"/>
<text text-anchor="middle" x="347.79" y="-606.93" font-family="Helvetica,sans-Serif" font-size="9.00">Nationality.js</text>
</a>
</g>
</g>
<!-- api/models/Nationality.js&#45;&gt;api/db/db.js -->
<g id="edge16" class="edge">
<title>api/models/Nationality.js&#45;&gt;api/db/db.js</title>
<path fill="none" stroke="#000000" stroke-width="2" stroke-opacity="0.200000" d="M381.51,-601.3C385.41,-599.28 389.06,-596.76 392.05,-593.63 400.11,-585.2 390.63,-575.51 400.05,-568.63 432.31,-545.08 481.11,-559.59 510.06,-571.88"/>
<polygon fill="#000000" fill-opacity="0.200000" stroke="#000000" stroke-width="2" stroke-opacity="0.200000" points="509.24,-573.81 515.57,-574.3 510.92,-569.97 509.24,-573.81"/>
</g>
<!-- api/models/Nationality.js&#45;&gt;node_modules/sequelize -->
<g id="edge17" class="edge">
<title>api/models/Nationality.js&#45;&gt;node_modules/sequelize</title>
<path fill="none" stroke="#000000" stroke-opacity="0.200000" d="M381.43,-601.85C385.44,-599.74 389.14,-597.05 392.05,-593.63 404.07,-579.49 390.6,-568.62 400.05,-552.63 450.15,-467.88 523.21,-497.22 570.07,-410.63 584.55,-383.87 559.67,-366.87 578.07,-342.63 580.12,-339.94 582.7,-337.69 585.55,-335.82"/>
<polygon fill="#000000" fill-opacity="0.200000" stroke="#000000" stroke-opacity="0.200000" points="586.69,-337.59 590.93,-332.85 584.66,-333.92 586.69,-337.59"/>
</g>
<!-- api/models/User.js -->
<g id="node25" class="node">
<title>api/models/User.js</title>
<g id="a_node25"><a xlink:href="api/models/User.js" xlink:title="User.js">
<path fill="#ffffcc" stroke="black" d="M368.59,-556.93C368.59,-556.93 327,-556.93 327,-556.93 323.89,-556.93 320.79,-553.83 320.79,-550.73 320.79,-550.73 320.79,-544.53 320.79,-544.53 320.79,-541.43 323.89,-538.33 327,-538.33 327,-538.33 368.59,-538.33 368.59,-538.33 371.69,-538.33 374.79,-541.43 374.79,-544.53 374.79,-544.53 374.79,-550.73 374.79,-550.73 374.79,-553.83 371.69,-556.93 368.59,-556.93"/>
<text text-anchor="middle" x="347.79" y="-544.93" font-family="Helvetica,sans-Serif" font-size="9.00">User.js</text>
</a>
</g>
</g>
<!-- api/models/User.js&#45;&gt;./language.js -->
<g id="edge19" class="edge">
<title>api/models/User.js&#45;&gt;./language.js</title>
<path fill="none" stroke="#000000" stroke-width="2" stroke-opacity="0.200000" d="M353.47,-538.2C362.17,-520.34 380.95,-480.18 392.05,-444.63 397.19,-428.16 389.7,-420.45 400.05,-406.63 402.78,-402.99 406.3,-399.88 410.12,-397.25"/>
<polygon fill="#000000" fill-opacity="0.200000" stroke="#000000" stroke-width="2" stroke-opacity="0.200000" points="411.47,-398.89 415.48,-393.96 409.27,-395.31 411.47,-398.89"/>
</g>
<!-- api/models/User.js&#45;&gt;./nationality.js -->
<g id="edge20" class="edge">
<title>api/models/User.js&#45;&gt;./nationality.js</title>
<path fill="none" stroke="#000000" stroke-width="2" stroke-opacity="0.200000" d="M353.81,-538.3C363.08,-520.6 382.77,-480.7 392.05,-444.63 396.23,-428.4 389.87,-382.95 400.05,-369.63 401.3,-367.99 402.75,-366.52 404.33,-365.2"/>
<polygon fill="#000000" fill-opacity="0.200000" stroke="#000000" stroke-width="2" stroke-opacity="0.200000" points="405.69,-366.81 409.43,-361.67 403.3,-363.36 405.69,-366.81"/>
</g>
<!-- api/models/User.js&#45;&gt;api/db/db.js -->
<g id="edge18" class="edge">
<title>api/models/User.js&#45;&gt;api/db/db.js</title>
<path fill="none" stroke="#000000" stroke-width="2" stroke-opacity="0.200000" d="M375,-544.01C404.39,-540.97 453.05,-539.04 492.07,-552.63 502.36,-556.22 512.25,-563.28 519.84,-569.75"/>
<polygon fill="#000000" fill-opacity="0.200000" stroke="#000000" stroke-width="2" stroke-opacity="0.200000" points="518.84,-571.67 524.71,-574.09 521.63,-568.53 518.84,-571.67"/>
</g>
<!-- api/models/User.js&#45;&gt;node_modules/sequelize -->
<g id="edge22" class="edge">
<title>api/models/User.js&#45;&gt;node_modules/sequelize</title>
<path fill="none" stroke="#000000" stroke-opacity="0.200000" d="M352.05,-538.12C360.54,-513.74 383.88,-449.83 400.05,-434.63 431.94,-404.67 453.14,-419.62 492.07,-399.63 532.86,-378.69 537.55,-364.1 578.07,-342.63 580.68,-341.25 583.44,-339.9 586.23,-338.62"/>
<polygon fill="#000000" fill-opacity="0.200000" stroke="#000000" stroke-opacity="0.200000" points="587.34,-340.42 591.98,-336.08 585.64,-336.58 587.34,-340.42"/>
</g>
<!-- api/models/UserLanguage.js -->
<g id="node26" class="node">
<title>api/models/UserLanguage.js</title>
<g id="a_node26"><a xlink:href="api/models/UserLanguage.js" xlink:title="UserLanguage.js">
<path fill="#ffffcc" stroke="black" d="M477.88,-592.93C477.88,-592.93 406.24,-592.93 406.24,-592.93 403.14,-592.93 400.04,-589.83 400.04,-586.73 400.04,-586.73 400.04,-580.53 400.04,-580.53 400.04,-577.43 403.14,-574.33 406.24,-574.33 406.24,-574.33 477.88,-574.33 477.88,-574.33 480.98,-574.33 484.08,-577.43 484.08,-580.53 484.08,-580.53 484.08,-586.73 484.08,-586.73 484.08,-589.83 480.98,-592.93 477.88,-592.93"/>
<text text-anchor="middle" x="442.06" y="-580.93" font-family="Helvetica,sans-Serif" font-size="9.00">UserLanguage.js</text>
</a>
</g>
</g>
<!-- api/models/User.js&#45;&gt;api/models/UserLanguage.js -->
<g id="edge21" class="edge">
<title>api/models/User.js&#45;&gt;api/models/UserLanguage.js</title>
<path fill="none" stroke="#000000" stroke-width="2" stroke-opacity="0.200000" d="M374.46,-556.97C380.26,-559.12 386.38,-561.43 392.05,-563.63 398.87,-566.29 406.2,-569.23 413.05,-572.02"/>
<polygon fill="#000000" fill-opacity="0.200000" stroke="#000000" stroke-width="2" stroke-opacity="0.200000" points="412.33,-573.99 418.67,-574.32 413.92,-570.1 412.33,-573.99"/>
</g>
<!-- api/models/UserLanguage.js&#45;&gt;api/db/db.js -->
<g id="edge23" class="edge">
<title>api/models/UserLanguage.js&#45;&gt;api/db/db.js</title>
<path fill="none" stroke="#000000" stroke-width="2" stroke-opacity="0.200000" d="M484.3,-583.63C490.17,-583.63 496.14,-583.63 501.81,-583.63"/>
<polygon fill="#000000" fill-opacity="0.200000" stroke="#000000" stroke-width="2" stroke-opacity="0.200000" points="501.82,-585.73 507.82,-583.63 501.82,-581.53 501.82,-585.73"/>
</g>
<!-- api/models/UserLanguage.js&#45;&gt;node_modules/sequelize -->
<g id="edge24" class="edge">
<title>api/models/UserLanguage.js&#45;&gt;node_modules/sequelize</title>
<path fill="none" stroke="#000000" stroke-opacity="0.200000" d="M468.64,-574.3C498.84,-561.77 547.78,-536.38 570.07,-496.63 586.83,-466.74 558.25,-370.59 578.07,-342.63 580.03,-339.87 582.55,-337.59 585.37,-335.69"/>
<polygon fill="#000000" fill-opacity="0.200000" stroke="#000000" stroke-opacity="0.200000" points="586.51,-337.46 590.71,-332.7 584.45,-333.8 586.51,-337.46"/>
</g>
<!-- api/routes/nationality.js&#45;&gt;node_modules/express -->
<g id="edge30" class="edge">
<title>api/routes/nationality.js&#45;&gt;node_modules/express</title>
<path fill="none" stroke="#000000" stroke-opacity="0.200000" d="M265.68,-610.5C276.66,-608.47 288.07,-604.2 295.54,-595.63 305.54,-584.16 297.98,-541.79 303.54,-527.63 327.9,-465.62 367.69,-468.65 392.05,-406.63 397.61,-392.47 390.49,-350.47 400.05,-338.63 406.08,-331.17 526.22,-292.95 585.09,-274.55"/>
<polygon fill="#000000" fill-opacity="0.200000" stroke="#000000" stroke-opacity="0.200000" points="585.83,-276.52 590.94,-272.73 584.58,-272.51 585.83,-276.52"/>
</g>
<!-- api/routes/nationality.js&#45;&gt;api/models/Nationality.js -->
<g id="edge29" class="edge">
<title>api/routes/nationality.js&#45;&gt;api/models/Nationality.js</title>
<path fill="none" stroke="#000000" stroke-width="2" stroke-opacity="0.200000" d="M265.74,-611.07C278.85,-610.84 294.17,-610.57 307.94,-610.32"/>
<polygon fill="#000000" fill-opacity="0.200000" stroke="#000000" stroke-width="2" stroke-opacity="0.200000" points="308.18,-612.42 314.14,-610.21 308.11,-608.22 308.18,-612.42"/>
</g>
<!-- api/routes/resource.js&#45;&gt;node_modules/express -->
<g id="edge31" class="edge">
<title>api/routes/resource.js&#45;&gt;node_modules/express</title>
<path fill="none" stroke="#000000" stroke-opacity="0.200000" d="M263.2,-546.16C275.09,-543.2 287.83,-537.73 295.54,-527.63 309.48,-509.39 291.62,-444.25 303.54,-424.63 327.6,-385.06 366.63,-408.35 392.05,-369.63 405.36,-349.35 383.63,-333.49 400.05,-315.63 447.56,-263.97 536.67,-259.91 584.6,-261.93"/>
<polygon fill="#000000" fill-opacity="0.200000" stroke="#000000" stroke-opacity="0.200000" points="584.7,-264.04 590.8,-262.24 584.91,-259.85 584.7,-264.04"/>
</g>
<!-- api/routes/user.js&#45;&gt;../models/nationality -->
<g id="edge33" class="edge">
<title>api/routes/user.js&#45;&gt;../models/nationality</title>
<path fill="none" stroke="#000000" stroke-width="2" stroke-opacity="0.200000" d="M260.05,-580.73C272.79,-579.29 287.15,-575.16 295.54,-564.63 314.93,-540.28 285.39,-309.92 303.54,-284.63 306.3,-280.79 310.08,-277.87 314.28,-275.65"/>
<polygon fill="#000000" fill-opacity="0.200000" stroke="#000000" stroke-width="2" stroke-opacity="0.200000" points="315.15,-277.56 319.77,-273.2 313.43,-273.73 315.15,-277.56"/>
</g>
<!-- api/routes/user.js&#45;&gt;node_modules/express -->
<g id="edge35" class="edge">
<title>api/routes/user.js&#45;&gt;node_modules/express</title>
<path fill="none" stroke="#000000" stroke-opacity="0.200000" d="M260.08,-580.75C272.83,-579.32 287.19,-575.2 295.54,-564.63 308.53,-548.2 288.57,-202.29 303.54,-187.63 345.86,-146.2 525.55,-148.57 570.07,-187.63 590.62,-205.67 561.39,-226.96 578.07,-248.63 580.13,-251.32 582.72,-253.55 585.59,-255.41"/>
<polygon fill="#000000" fill-opacity="0.200000" stroke="#000000" stroke-opacity="0.200000" points="584.7,-257.32 590.97,-258.38 586.73,-253.64 584.7,-257.32"/>
</g>
<!-- api/routes/user.js&#45;&gt;api/models/Language.js -->
<g id="edge32" class="edge">
<title>api/routes/user.js&#45;&gt;api/models/Language.js</title>
<path fill="none" stroke="#000000" stroke-width="2" stroke-opacity="0.200000" d="M260.18,-580.17C274.66,-579.91 292.9,-579.59 308.91,-579.3"/>
<polygon fill="#000000" fill-opacity="0.200000" stroke="#000000" stroke-width="2" stroke-opacity="0.200000" points="309.2,-581.4 315.16,-579.19 309.12,-577.2 309.2,-581.4"/>
</g>
<!-- api/routes/user.js&#45;&gt;api/models/User.js -->
<g id="edge34" class="edge">
<title>api/routes/user.js&#45;&gt;api/models/User.js</title>
<path fill="none" stroke="#000000" stroke-width="2" stroke-opacity="0.200000" d="M260.17,-574.24C271.14,-571.45 284.01,-568.04 295.54,-564.63 301.8,-562.78 308.45,-560.68 314.82,-558.6"/>
<polygon fill="#000000" fill-opacity="0.200000" stroke="#000000" stroke-width="2" stroke-opacity="0.200000" points="315.52,-560.58 320.56,-556.7 314.21,-556.59 315.52,-560.58"/>
</g>
<!-- api/scripts/createDb.js -->
<g id="node30" class="node">
<title>api/scripts/createDb.js</title>
<g id="a_node30"><a xlink:href="api/scripts/createDb.js" xlink:title="createDb.js">
<path fill="#ffffcc" stroke="black" d="M257.33,-681.93C257.33,-681.93 208.72,-681.93 208.72,-681.93 205.62,-681.93 202.52,-678.83 202.52,-675.73 202.52,-675.73 202.52,-669.53 202.52,-669.53 202.52,-666.43 205.62,-663.33 208.72,-663.33 208.72,-663.33 257.33,-663.33 257.33,-663.33 260.43,-663.33 263.53,-666.43 263.53,-669.53 263.53,-669.53 263.53,-675.73 263.53,-675.73 263.53,-678.83 260.43,-681.93 257.33,-681.93"/>
<text text-anchor="middle" x="233.03" y="-669.93" font-family="Helvetica,sans-Serif" font-size="9.00">createDb.js</text>
</a>
</g>
</g>
<!-- api/scripts/createDb.js&#45;&gt;api/env&#45;config.js -->
<g id="edge36" class="edge">
<title>api/scripts/createDb.js&#45;&gt;api/env&#45;config.js</title>
<path fill="none" stroke="#000000" stroke-width="2" stroke-opacity="0.200000" d="M263.77,-672.07C312.13,-670.67 410.61,-665.76 492.07,-648.63 527.83,-641.11 538.13,-640.38 570.07,-622.63 582.27,-615.85 594.35,-605.74 603.21,-597.5"/>
<polygon fill="#000000" fill-opacity="0.200000" stroke="#000000" stroke-width="2" stroke-opacity="0.200000" points="604.88,-598.82 607.78,-593.16 601.98,-595.77 604.88,-598.82"/>
</g>
<!-- node_modules/pgtools -->
<g id="node31" class="node">
<title>node_modules/pgtools</title>
<g id="a_node31"><a xlink:href="node_modules/pgtools" xlink:title="pgtools">
<polygon fill="#c40b0a" fill-opacity="0.101961" stroke="black" points="645.07,-304.93 593.14,-304.93 591.07,-302.87 591.07,-286.33 643,-286.33 645.07,-288.4 645.07,-304.93"/>
<polyline fill="none" stroke="black" points="643,-302.87 591.07,-302.87 "/>
<polyline fill="none" stroke="black" points="643,-302.87 643,-286.33 "/>
<polyline fill="none" stroke="black" points="643,-302.87 645.07,-304.93 "/>
<text text-anchor="middle" x="618.07" y="-292.93" font-family="Helvetica,sans-Serif" font-size="9.00" fill="#c40b0a">pgtools</text>
</a>
</g>
</g>
<!-- api/scripts/createDb.js&#45;&gt;node_modules/pgtools -->
<g id="edge37" class="edge">
<title>api/scripts/createDb.js&#45;&gt;node_modules/pgtools</title>
<path fill="none" stroke="#000000" stroke-opacity="0.200000" d="M263.81,-669.3C275.66,-666.35 288.2,-660.86 295.54,-650.63 309.58,-631.09 286.37,-234.49 303.54,-217.63 331.61,-190.08 353.26,-211.1 392.05,-217.63 430.72,-224.15 535.63,-263.83 587.38,-283.95"/>
<polygon fill="#000000" fill-opacity="0.200000" stroke="#000000" stroke-opacity="0.200000" points="586.77,-285.97 593.12,-286.19 588.3,-282.06 586.77,-285.97"/>
</g>
<!-- api/scripts/createLanguage.js -->
<g id="node32" class="node">
<title>api/scripts/createLanguage.js</title>
<g id="a_node32"><a xlink:href="api/scripts/createLanguage.js" xlink:title="createLanguage.js">
<path fill="#ffffcc" stroke="black" d="M271.86,-774.93C271.86,-774.93 194.2,-774.93 194.2,-774.93 191.1,-774.93 188,-771.83 188,-768.73 188,-768.73 188,-762.53 188,-762.53 188,-759.43 191.1,-756.33 194.2,-756.33 194.2,-756.33 271.86,-756.33 271.86,-756.33 274.96,-756.33 278.06,-759.43 278.06,-762.53 278.06,-762.53 278.06,-768.73 278.06,-768.73 278.06,-771.83 274.96,-774.93 271.86,-774.93"/>
<text text-anchor="middle" x="233.03" y="-762.93" font-family="Helvetica,sans-Serif" font-size="9.00">createLanguage.js</text>
</a>
</g>
</g>
<!-- api/scripts/createLanguage.js&#45;&gt;api/models/Language.js -->
<g id="edge38" class="edge">
<title>api/scripts/createLanguage.js&#45;&gt;api/models/Language.js</title>
<path fill="none" stroke="#000000" stroke-width="2" stroke-opacity="0.200000" d="M278.09,-761.49C284.81,-758.96 291.01,-755.19 295.54,-749.63 317.33,-722.9 283.11,-622.42 303.54,-594.63 305.29,-592.26 307.42,-590.24 309.81,-588.51"/>
<polygon fill="#000000" fill-opacity="0.200000" stroke="#000000" stroke-width="2" stroke-opacity="0.200000" points="310.94,-590.28 314.99,-585.38 308.77,-586.69 310.94,-590.28"/>
</g>
<!-- api/scripts/createNationality.js -->
<g id="node33" class="node">
<title>api/scripts/createNationality.js</title>
<g id="a_node33"><a xlink:href="api/scripts/createNationality.js" xlink:title="createNationality.js">
<path fill="#ffffcc" stroke="black" d="M272.83,-805.93C272.83,-805.93 193.22,-805.93 193.22,-805.93 190.12,-805.93 187.02,-802.83 187.02,-799.73 187.02,-799.73 187.02,-793.53 187.02,-793.53 187.02,-790.43 190.12,-787.33 193.22,-787.33 193.22,-787.33 272.83,-787.33 272.83,-787.33 275.93,-787.33 279.03,-790.43 279.03,-793.53 279.03,-793.53 279.03,-799.73 279.03,-799.73 279.03,-802.83 275.93,-805.93 272.83,-805.93"/>
<text text-anchor="middle" x="233.03" y="-793.93" font-family="Helvetica,sans-Serif" font-size="9.00">createNationality.js</text>
</a>
</g>
</g>
<!-- api/scripts/createNationality.js&#45;&gt;api/models/Nationality.js -->
<g id="edge39" class="edge">
<title>api/scripts/createNationality.js&#45;&gt;api/models/Nationality.js</title>
<path fill="none" stroke="#000000" stroke-width="2" stroke-opacity="0.200000" d="M279.28,-790.75C285.3,-788.37 290.96,-785.1 295.54,-780.63 304.8,-771.59 299.89,-765.05 303.54,-752.63 317.23,-706.07 334.02,-651.16 342.06,-625"/>
<polygon fill="#000000" fill-opacity="0.200000" stroke="#000000" stroke-width="2" stroke-opacity="0.200000" points="344.15,-625.34 343.91,-618.99 340.14,-624.11 344.15,-625.34"/>
</g>
<!-- api/scripts/createUser.js -->
<g id="node34" class="node">
<title>api/scripts/createUser.js</title>
<g id="a_node34"><a xlink:href="api/scripts/createUser.js" xlink:title="createUser.js">
<path fill="#ffffcc" stroke="black" d="M261.33,-712.93C261.33,-712.93 204.73,-712.93 204.73,-712.93 201.63,-712.93 198.53,-709.83 198.53,-706.73 198.53,-706.73 198.53,-700.53 198.53,-700.53 198.53,-697.43 201.63,-694.33 204.73,-694.33 204.73,-694.33 261.33,-694.33 261.33,-694.33 264.43,-694.33 267.53,-697.43 267.53,-700.53 267.53,-700.53 267.53,-706.73 267.53,-706.73 267.53,-709.83 264.43,-712.93 261.33,-712.93"/>
<text text-anchor="middle" x="233.03" y="-700.93" font-family="Helvetica,sans-Serif" font-size="9.00">createUser.js</text>
</a>
</g>
</g>
<!-- api/scripts/createUser.js&#45;&gt;../models/user.js -->
<g id="edge40" class="edge">
<title>api/scripts/createUser.js&#45;&gt;../models/user.js</title>
<path fill="none" stroke="#000000" stroke-width="2" stroke-opacity="0.200000" d="M267.75,-702.58C278.26,-700.46 288.85,-696.13 295.54,-687.63 310.47,-668.69 289.58,-273.3 303.54,-253.63 306.41,-249.59 310.42,-246.57 314.85,-244.31"/>
<polygon fill="#000000" fill-opacity="0.200000" stroke="#000000" stroke-width="2" stroke-opacity="0.200000" points="315.94,-246.13 320.63,-241.84 314.29,-242.27 315.94,-246.13"/>
</g>
<!-- api/scripts/createUserLanguage.js -->
<g id="node35" class="node">
<title>api/scripts/createUserLanguage.js</title>
<g id="a_node35"><a xlink:href="api/scripts/createUserLanguage.js" xlink:title="createUserLanguage.js">
<path fill="#ffffcc" stroke="black" d="M281.35,-836.93C281.35,-836.93 184.7,-836.93 184.7,-836.93 181.6,-836.93 178.5,-833.83 178.5,-830.73 178.5,-830.73 178.5,-824.53 178.5,-824.53 178.5,-821.43 181.6,-818.33 184.7,-818.33 184.7,-818.33 281.35,-818.33 281.35,-818.33 284.45,-818.33 287.55,-821.43 287.55,-824.53 287.55,-824.53 287.55,-830.73 287.55,-830.73 287.55,-833.83 284.45,-836.93 281.35,-836.93"/>
<text text-anchor="middle" x="233.03" y="-824.93" font-family="Helvetica,sans-Serif" font-size="9.00">createUserLanguage.js</text>
</a>
</g>
</g>
<!-- api/scripts/createUserLanguage.js&#45;&gt;api/models/UserLanguage.js -->
<g id="edge41" class="edge">
<title>api/scripts/createUserLanguage.js&#45;&gt;api/models/UserLanguage.js</title>
<path fill="none" stroke="#000000" stroke-width="2" stroke-opacity="0.200000" d="M283.88,-818.23C288.01,-816.4 291.97,-814.23 295.54,-811.63 374.3,-754.38 420.94,-640.29 435.82,-599"/>
<polygon fill="#000000" fill-opacity="0.200000" stroke="#000000" stroke-width="2" stroke-opacity="0.200000" points="437.84,-599.59 437.86,-593.23 433.88,-598.19 437.84,-599.59"/>
</g>
<!-- api/scripts/sync.js -->
<g id="node36" class="node">
<title>api/scripts/sync.js</title>
<g id="a_node36"><a xlink:href="api/scripts/sync.js" xlink:title="sync.js">
<path fill="#ffffcc" stroke="black" d="M253.83,-743.93C253.83,-743.93 212.23,-743.93 212.23,-743.93 209.13,-743.93 206.03,-740.83 206.03,-737.73 206.03,-737.73 206.03,-731.53 206.03,-731.53 206.03,-728.43 209.13,-725.33 212.23,-725.33 212.23,-725.33 253.83,-725.33 253.83,-725.33 256.93,-725.33 260.03,-728.43 260.03,-731.53 260.03,-731.53 260.03,-737.73 260.03,-737.73 260.03,-740.83 256.93,-743.93 253.83,-743.93"/>
<text text-anchor="middle" x="233.03" y="-731.93" font-family="Helvetica,sans-Serif" font-size="9.00">sync.js</text>
</a>
</g>
</g>
<!-- api/scripts/sync.js&#45;&gt;../models/language -->
<g id="edge43" class="edge">
<title>api/scripts/sync.js&#45;&gt;../models/language</title>
<path fill="none" stroke="#000000" stroke-width="2" stroke-opacity="0.200000" d="M260.31,-734.65C272.95,-733.17 287.15,-729.02 295.54,-718.63 308.88,-702.1 300.81,-548.7 303.54,-527.63 312.45,-458.94 333.42,-378.78 342.49,-345.89"/>
<polygon fill="#000000" fill-opacity="0.200000" stroke="#000000" stroke-width="2" stroke-opacity="0.200000" points="344.55,-346.31 344.14,-339.96 340.51,-345.18 344.55,-346.31"/>
</g>
<!-- api/scripts/sync.js&#45;&gt;../models/nationality -->
<g id="edge44" class="edge">
<title>api/scripts/sync.js&#45;&gt;../models/nationality</title>
<path fill="none" stroke="#000000" stroke-width="2" stroke-opacity="0.200000" d="M260.1,-734.76C272.85,-733.34 287.21,-729.21 295.54,-718.63 310.47,-699.69 289.58,-304.3 303.54,-284.63 306.28,-280.78 310.05,-277.85 314.25,-275.63"/>
<polygon fill="#000000" fill-opacity="0.200000" stroke="#000000" stroke-width="2" stroke-opacity="0.200000" points="315.11,-277.54 319.73,-273.17 313.39,-273.71 315.11,-277.54"/>
</g>
<!-- api/scripts/sync.js&#45;&gt;../models/user -->
<g id="edge45" class="edge">
<title>api/scripts/sync.js&#45;&gt;../models/user</title>
<path fill="none" stroke="#000000" stroke-width="2" stroke-opacity="0.200000" d="M260.09,-734.76C272.84,-733.33 287.2,-729.2 295.54,-718.63 309.41,-701.05 290.56,-333.88 303.54,-315.63 306.41,-311.6 310.42,-308.58 314.85,-306.32"/>
<polygon fill="#000000" fill-opacity="0.200000" stroke="#000000" stroke-width="2" stroke-opacity="0.200000" points="315.94,-308.13 320.64,-303.84 314.29,-304.27 315.94,-308.13"/>
</g>
<!-- api/scripts/sync.js&#45;&gt;api/db/db.js -->
<g id="edge42" class="edge">
<title>api/scripts/sync.js&#45;&gt;api/db/db.js</title>
<path fill="none" stroke="#000000" stroke-width="2" stroke-opacity="0.200000" d="M260.19,-734.43C313.17,-732.49 433.11,-719.98 492.07,-648.63 506.96,-630.61 485.38,-614.83 500.07,-596.63 500.87,-595.64 501.76,-594.72 502.72,-593.87"/>
<polygon fill="#000000" fill-opacity="0.200000" stroke="#000000" stroke-width="2" stroke-opacity="0.200000" points="504.27,-595.35 507.97,-590.18 501.85,-591.91 504.27,-595.35"/>
</g>
</g>
</svg>
