<?xml version="1.0" encoding="UTF-8" standalone="no"?>
<!DOCTYPE svg PUBLIC "-//W3C//DTD SVG 1.1//EN"
 "http://www.w3.org/Graphics/SVG/1.1/DTD/svg11.dtd">
<!-- Generated by graphviz version 2.44.0 (20200408.0750)
 -->
<!-- Title: dependency&#45;cruiser output Pages: 1 -->
<svg width="245pt" height="449pt"
 viewBox="0.00 0.00 244.52 449.00" xmlns="http://www.w3.org/2000/svg" xmlns:xlink="http://www.w3.org/1999/xlink">
<g id="graph0" class="graph" transform="scale(1 1) rotate(0) translate(4 445)">
<title>dependency&#45;cruiser output</title>
<polygon fill="white" stroke="transparent" points="-4,4 -4,-445 240.52,-445 240.52,4 -4,4"/>
<g id="clust1" class="cluster">
<title>cluster_client</title>
<path fill="#ffffff" stroke="black" stroke-width="2" d="M20,-100C20,-100 216.52,-100 216.52,-100 222.52,-100 228.52,-106 228.52,-112 228.52,-112 228.52,-421 228.52,-421 228.52,-427 222.52,-433 216.52,-433 216.52,-433 20,-433 20,-433 14,-433 8,-427 8,-421 8,-421 8,-112 8,-112 8,-106 14,-100 20,-100"/>
<text text-anchor="middle" x="118.26" y="-420.9" font-family="Helvetica,sans-Serif" font-weight="bold" font-size="9.00">client</text>
</g>
<g id="clust2" class="cluster">
<title>cluster_client/components</title>
<path fill="#ffffff" stroke="black" stroke-width="2" d="M116,-322C116,-322 208.52,-322 208.52,-322 214.52,-322 220.52,-328 220.52,-334 220.52,-334 220.52,-394 220.52,-394 220.52,-400 214.52,-406 208.52,-406 208.52,-406 116,-406 116,-406 110,-406 104,-400 104,-394 104,-394 104,-334 104,-334 104,-328 110,-322 116,-322"/>
<text text-anchor="middle" x="162.26" y="-393.9" font-family="Helvetica,sans-Serif" font-weight="bold" font-size="9.00">components</text>
</g>
<g id="clust3" class="cluster">
<title>cluster_client/pages</title>
<path fill="#ffffff" stroke="black" stroke-width="2" d="M28,-165C28,-165 204.26,-165 204.26,-165 210.26,-165 216.26,-171 216.26,-177 216.26,-177 216.26,-302 216.26,-302 216.26,-308 210.26,-314 204.26,-314 204.26,-314 28,-314 28,-314 22,-314 16,-308 16,-302 16,-302 16,-177 16,-177 16,-171 22,-165 28,-165"/>
<text text-anchor="middle" x="116.13" y="-301.9" font-family="Helvetica,sans-Serif" font-weight="bold" font-size="9.00">pages</text>
</g>
<g id="clust4" class="cluster">
<title>cluster_client/pages/home</title>
<path fill="#ffffff" stroke="black" stroke-width="2" d="M40.25,-234C40.25,-234 196.26,-234 196.26,-234 202.26,-234 208.26,-240 208.26,-246 208.26,-246 208.26,-275 208.26,-275 208.26,-281 202.26,-287 196.26,-287 196.26,-287 40.25,-287 40.25,-287 34.25,-287 28.25,-281 28.25,-275 28.25,-275 28.25,-246 28.25,-246 28.25,-240 34.25,-234 40.25,-234"/>
<text text-anchor="middle" x="118.26" y="-274.9" font-family="Helvetica,sans-Serif" font-weight="bold" font-size="9.00">home</text>
</g>
<g id="clust5" class="cluster">
<title>cluster_client/pages/members</title>
<path fill="#ffffff" stroke="black" stroke-width="2" d="M36,-173C36,-173 196.26,-173 196.26,-173 202.26,-173 208.26,-179 208.26,-185 208.26,-185 208.26,-214 208.26,-214 208.26,-220 202.26,-226 196.26,-226 196.26,-226 36,-226 36,-226 30,-226 24,-220 24,-214 24,-214 24,-185 24,-185 24,-179 30,-173 36,-173"/>
<text text-anchor="middle" x="116.13" y="-213.9" font-family="Helvetica,sans-Serif" font-weight="bold" font-size="9.00">members</text>
</g>
<g id="clust6" class="cluster">
<title>cluster_node_modules</title>
<path fill="#ffffff" stroke="black" stroke-width="2" d="M137.26,-8C137.26,-8 188.26,-8 188.26,-8 194.26,-8 200.26,-14 200.26,-20 200.26,-20 200.26,-80 200.26,-80 200.26,-86 194.26,-92 188.26,-92 188.26,-92 137.26,-92 137.26,-92 131.26,-92 125.26,-86 125.26,-80 125.26,-80 125.26,-20 125.26,-20 125.26,-14 131.26,-8 137.26,-8"/>
<text text-anchor="middle" x="162.76" y="-79.9" font-family="Helvetica,sans-Serif" font-weight="bold" font-size="9.00">node_modules</text>
</g>
<!-- client/components/footer&#45;component.js -->
<g id="node1" class="node">
<title>client/components/footer&#45;component.js</title>
<g id="a_node1"><a xlink:href="client/components/footer-component.js" xlink:title="footer&#45;component.js">
<path fill="#ffffcc" stroke="black" d="M203.58,-379.3C203.58,-379.3 120.94,-379.3 120.94,-379.3 117.84,-379.3 114.74,-376.2 114.74,-373.1 114.74,-373.1 114.74,-366.9 114.74,-366.9 114.74,-363.8 117.84,-360.7 120.94,-360.7 120.94,-360.7 203.58,-360.7 203.58,-360.7 206.68,-360.7 209.78,-363.8 209.78,-366.9 209.78,-366.9 209.78,-373.1 209.78,-373.1 209.78,-376.2 206.68,-379.3 203.58,-379.3"/>
<text text-anchor="middle" x="162.26" y="-367.3" font-family="Helvetica,sans-Serif" font-size="9.00">footer&#45;component.js</text>
</a>
</g>
</g>
<!-- client/components/header&#45;component.js -->
<g id="node2" class="node">
<title>client/components/header&#45;component.js</title>
<g id="a_node2"><a xlink:href="client/components/header-component.js" xlink:title="header&#45;component.js">
<path fill="#ffffcc" stroke="black" d="M206.08,-348.3C206.08,-348.3 118.44,-348.3 118.44,-348.3 115.34,-348.3 112.24,-345.2 112.24,-342.1 112.24,-342.1 112.24,-335.9 112.24,-335.9 112.24,-332.8 115.34,-329.7 118.44,-329.7 118.44,-329.7 206.08,-329.7 206.08,-329.7 209.19,-329.7 212.29,-332.8 212.29,-335.9 212.29,-335.9 212.29,-342.1 212.29,-342.1 212.29,-345.2 209.19,-348.3 206.08,-348.3"/>
<text text-anchor="middle" x="162.26" y="-336.3" font-family="Helvetica,sans-Serif" font-size="9.00">header&#45;component.js</text>
</a>
</g>
</g>
<!-- client/pages/home/home.js -->
<g id="node3" class="node">
<title>client/pages/home/home.js</title>
<g id="a_node3"><a xlink:href="client/pages/home/home.js" xlink:title="home.js">
<path fill="#ffffcc" stroke="black" d="M84.05,-260.3C84.05,-260.3 42.45,-260.3 42.45,-260.3 39.35,-260.3 36.25,-257.2 36.25,-254.1 36.25,-254.1 36.25,-247.9 36.25,-247.9 36.25,-244.8 39.35,-241.7 42.45,-241.7 42.45,-241.7 84.05,-241.7 84.05,-241.7 87.15,-241.7 90.25,-244.8 90.25,-247.9 90.25,-247.9 90.25,-254.1 90.25,-254.1 90.25,-257.2 87.15,-260.3 84.05,-260.3"/>
<text text-anchor="middle" x="63.25" y="-248.3" font-family="Helvetica,sans-Serif" font-size="9.00">home.js</text>
</a>
</g>
</g>
<!-- client/pages/home/home.js&#45;&gt;client/components/footer&#45;component.js -->
<g id="edge1" class="edge">
<title>client/pages/home/home.js&#45;&gt;client/components/footer&#45;component.js</title>
<path fill="none" stroke="#000000" stroke-width="2" stroke-opacity="0.200000" d="M65.12,-260.54C67.49,-280.82 75.91,-328.48 104,-354 105.67,-355.51 107.46,-356.88 109.35,-358.12"/>
<polygon fill="#000000" fill-opacity="0.200000" stroke="#000000" stroke-width="2" stroke-opacity="0.200000" points="108.32,-359.95 114.57,-361.12 110.41,-356.31 108.32,-359.95"/>
</g>
<!-- client/pages/home/home.js&#45;&gt;client/components/header&#45;component.js -->
<g id="edge2" class="edge">
<title>client/pages/home/home.js&#45;&gt;client/components/header&#45;component.js</title>
<path fill="none" stroke="#000000" stroke-width="2" stroke-opacity="0.200000" d="M73.55,-260.48C81.5,-268.5 93.31,-280.2 104,-290 117.51,-302.38 133.37,-315.87 144.97,-325.56"/>
<polygon fill="#000000" fill-opacity="0.200000" stroke="#000000" stroke-width="2" stroke-opacity="0.200000" points="143.7,-327.24 149.66,-329.46 146.39,-324.01 143.7,-327.24"/>
</g>
<!-- client/pages/home/main&#45;section.js -->
<g id="node4" class="node">
<title>client/pages/home/main&#45;section.js</title>
<g id="a_node4"><a xlink:href="client/pages/home/main-section.js" xlink:title="main&#45;section.js">
<path fill="#ffffcc" stroke="black" d="M194.06,-260.3C194.06,-260.3 130.46,-260.3 130.46,-260.3 127.36,-260.3 124.26,-257.2 124.26,-254.1 124.26,-254.1 124.26,-247.9 124.26,-247.9 124.26,-244.8 127.36,-241.7 130.46,-241.7 130.46,-241.7 194.06,-241.7 194.06,-241.7 197.16,-241.7 200.26,-244.8 200.26,-247.9 200.26,-247.9 200.26,-254.1 200.26,-254.1 200.26,-257.2 197.16,-260.3 194.06,-260.3"/>
<text text-anchor="middle" x="162.26" y="-248.3" font-family="Helvetica,sans-Serif" font-size="9.00">main&#45;section.js</text>
</a>
</g>
</g>
<!-- client/pages/home/home.js&#45;&gt;client/pages/home/main&#45;section.js -->
<g id="edge3" class="edge">
<title>client/pages/home/home.js&#45;&gt;client/pages/home/main&#45;section.js</title>
<path fill="none" stroke="#000000" stroke-width="2" stroke-opacity="0.200000" d="M90.5,-251C98.97,-251 108.6,-251 117.96,-251"/>
<polygon fill="#000000" fill-opacity="0.200000" stroke="#000000" stroke-width="2" stroke-opacity="0.200000" points="118.06,-253.1 124.06,-251 118.06,-248.9 118.06,-253.1"/>
</g>
<!-- client/pages/members/main&#45;section.js -->
<g id="node5" class="node">
<title>client/pages/members/main&#45;section.js</title>
<g id="a_node5"><a xlink:href="client/pages/members/main-section.js" xlink:title="main&#45;section.js">
<path fill="#ffffcc" stroke="black" d="M194.06,-199.3C194.06,-199.3 130.46,-199.3 130.46,-199.3 127.36,-199.3 124.26,-196.2 124.26,-193.1 124.26,-193.1 124.26,-186.9 124.26,-186.9 124.26,-183.8 127.36,-180.7 130.46,-180.7 130.46,-180.7 194.06,-180.7 194.06,-180.7 197.16,-180.7 200.26,-183.8 200.26,-186.9 200.26,-186.9 200.26,-193.1 200.26,-193.1 200.26,-196.2 197.16,-199.3 194.06,-199.3"/>
<text text-anchor="middle" x="162.26" y="-187.3" font-family="Helvetica,sans-Serif" font-size="9.00">main&#45;section.js</text>
</a>
</g>
</g>
<!-- client/pages/members/members.js -->
<g id="node6" class="node">
<title>client/pages/members/members.js</title>
<g id="a_node6"><a xlink:href="client/pages/members/members.js" xlink:title="members.js">
<path fill="#ffffcc" stroke="black" d="M88.54,-199.3C88.54,-199.3 37.95,-199.3 37.95,-199.3 34.85,-199.3 31.75,-196.2 31.75,-193.1 31.75,-193.1 31.75,-186.9 31.75,-186.9 31.75,-183.8 34.85,-180.7 37.95,-180.7 37.95,-180.7 88.54,-180.7 88.54,-180.7 91.65,-180.7 94.75,-183.8 94.75,-186.9 94.75,-186.9 94.75,-193.1 94.75,-193.1 94.75,-196.2 91.65,-199.3 88.54,-199.3"/>
<text text-anchor="middle" x="63.25" y="-187.3" font-family="Helvetica,sans-Serif" font-size="9.00">members.js</text>
</a>
</g>
</g>
<!-- client/pages/members/members.js&#45;&gt;client/components/footer&#45;component.js -->
<g id="edge4" class="edge">
<title>client/pages/members/members.js&#45;&gt;client/components/footer&#45;component.js</title>
<path fill="none" stroke="#000000" stroke-width="2" stroke-opacity="0.200000" d="M74.22,-199.4C81.67,-207.1 91.35,-218.71 96,-231 105.7,-256.62 86.74,-332.73 104,-354 105.65,-356.03 107.53,-357.81 109.58,-359.38"/>
<polygon fill="#000000" fill-opacity="0.200000" stroke="#000000" stroke-width="2" stroke-opacity="0.200000" points="108.47,-361.17 114.65,-362.66 110.75,-357.64 108.47,-361.17"/>
</g>
<!-- client/pages/members/members.js&#45;&gt;client/components/header&#45;component.js -->
<g id="edge5" class="edge">
<title>client/pages/members/members.js&#45;&gt;client/components/header&#45;component.js</title>
<path fill="none" stroke="#000000" stroke-width="2" stroke-opacity="0.200000" d="M73.98,-199.49C81.31,-207.25 90.92,-218.88 96,-231 106.23,-255.41 91.34,-266.76 104,-290 112.22,-305.08 127.06,-317.58 139.58,-326.18"/>
<polygon fill="#000000" fill-opacity="0.200000" stroke="#000000" stroke-width="2" stroke-opacity="0.200000" points="138.61,-328.05 144.77,-329.62 140.93,-324.55 138.61,-328.05"/>
</g>
<!-- client/pages/members/members.js&#45;&gt;client/pages/members/main&#45;section.js -->
<g id="edge6" class="edge">
<title>client/pages/members/members.js&#45;&gt;client/pages/members/main&#45;section.js</title>
<path fill="none" stroke="#000000" stroke-width="2" stroke-opacity="0.200000" d="M94.68,-190C101.97,-190 109.9,-190 117.66,-190"/>
<polygon fill="#000000" fill-opacity="0.200000" stroke="#000000" stroke-width="2" stroke-opacity="0.200000" points="118.12,-192.1 124.12,-190 118.12,-187.9 118.12,-192.1"/>
</g>
<!-- client/test2.js -->
<g id="node7" class="node">
<title>client/test2.js</title>
<g id="a_node7"><a xlink:href="client/test2.js" xlink:title="test2.js">
<path fill="#ccffcc" stroke="black" d="M84.05,-157.3C84.05,-157.3 42.45,-157.3 42.45,-157.3 39.35,-157.3 36.25,-154.2 36.25,-151.1 36.25,-151.1 36.25,-144.9 36.25,-144.9 36.25,-141.8 39.35,-138.7 42.45,-138.7 42.45,-138.7 84.05,-138.7 84.05,-138.7 87.15,-138.7 90.25,-141.8 90.25,-144.9 90.25,-144.9 90.25,-151.1 90.25,-151.1 90.25,-154.2 87.15,-157.3 84.05,-157.3"/>
<text text-anchor="middle" x="63.25" y="-145.3" font-family="Helvetica,sans-Serif" font-size="9.00">test2.js</text>
</a>
</g>
</g>
<!-- client/vite.config.js -->
<g id="node8" class="node">
<title>client/vite.config.js</title>
<g id="a_node8"><a xlink:href="client/vite.config.js" xlink:title="vite.config.js">
<path fill="#ffffcc" stroke="black" d="M89.56,-126.3C89.56,-126.3 36.94,-126.3 36.94,-126.3 33.84,-126.3 30.74,-123.2 30.74,-120.1 30.74,-120.1 30.74,-113.9 30.74,-113.9 30.74,-110.8 33.84,-107.7 36.94,-107.7 36.94,-107.7 89.56,-107.7 89.56,-107.7 92.66,-107.7 95.76,-110.8 95.76,-113.9 95.76,-113.9 95.76,-120.1 95.76,-120.1 95.76,-123.2 92.66,-126.3 89.56,-126.3"/>
<text text-anchor="middle" x="63.25" y="-114.3" font-family="Helvetica,sans-Serif" font-size="9.00">vite.config.js</text>
</a>
</g>
</g>
<!-- node_modules/@vitejs -->
<g id="node9" class="node">
<title>node_modules/@vitejs</title>
<g id="a_node9"><a xlink:href="node_modules/@vitejs" xlink:title="@vitejs">
<polygon fill="#c40b0a" fill-opacity="0.101961" stroke="black" points="189.26,-65.3 137.33,-65.3 135.26,-63.23 135.26,-46.7 187.2,-46.7 189.26,-48.77 189.26,-65.3"/>
<polyline fill="none" stroke="black" points="187.2,-63.23 135.26,-63.23 "/>
<polyline fill="none" stroke="black" points="187.2,-63.23 187.2,-46.7 "/>
<polyline fill="none" stroke="black" points="187.2,-63.23 189.26,-65.3 "/>
<text text-anchor="middle" x="162.26" y="-53.3" font-family="Helvetica,sans-Serif" font-size="9.00" fill="#c40b0a">@vitejs</text>
</a>
</g>
</g>
<!-- client/vite.config.js&#45;&gt;node_modules/@vitejs -->
<g id="edge7" class="edge">
<title>client/vite.config.js&#45;&gt;node_modules/@vitejs</title>
<path fill="none" stroke="#000000" stroke-opacity="0.200000" d="M79.41,-107.47C95.92,-97.08 122.44,-80.41 140.8,-68.87"/>
<polygon fill="#000000" fill-opacity="0.200000" stroke="#000000" stroke-opacity="0.200000" points="142.25,-70.44 146.21,-65.46 140.01,-66.88 142.25,-70.44"/>
</g>
<!-- node_modules/vite -->
<g id="node10" class="node">
<title>node_modules/vite</title>
<g id="a_node10"><a xlink:href="node_modules/vite" xlink:title="vite">
<polygon fill="#c40b0a" fill-opacity="0.101961" stroke="black" points="189.26,-34.3 137.33,-34.3 135.26,-32.23 135.26,-15.7 187.2,-15.7 189.26,-17.77 189.26,-34.3"/>
<polyline fill="none" stroke="black" points="187.2,-32.23 135.26,-32.23 "/>
<polyline fill="none" stroke="black" points="187.2,-32.23 187.2,-15.7 "/>
<polyline fill="none" stroke="black" points="187.2,-32.23 189.26,-34.3 "/>
<text text-anchor="middle" x="162.26" y="-22.3" font-family="Helvetica,sans-Serif" font-size="9.00" fill="#c40b0a">vite</text>
</a>
</g>
</g>
<!-- client/vite.config.js&#45;&gt;node_modules/vite -->
<g id="edge8" class="edge">
<title>client/vite.config.js&#45;&gt;node_modules/vite</title>
<path fill="none" stroke="#000000" stroke-opacity="0.200000" d="M66.57,-107.49C71,-91.35 82.25,-58.62 104,-41 111.17,-35.19 120.31,-31.49 129.18,-29.13"/>
<polygon fill="#000000" fill-opacity="0.200000" stroke="#000000" stroke-opacity="0.200000" points="129.88,-31.12 135.24,-27.7 128.92,-27.04 129.88,-31.12"/>
</g>
</g>
</svg>
