<?xml version="1.0" encoding="UTF-8" standalone="no"?>
<!DOCTYPE svg PUBLIC "-//W3C//DTD SVG 1.1//EN"
 "http://www.w3.org/Graphics/SVG/1.1/DTD/svg11.dtd">
<!-- Generated by graphviz version 2.44.0 (20200408.0750)
 -->
<!-- Title: dependency&#45;cruiser output Pages: 1 -->
<svg width="178pt" height="200pt"
 viewBox="0.00 0.00 178.01 200.00" xmlns="http://www.w3.org/2000/svg" xmlns:xlink="http://www.w3.org/1999/xlink">
<g id="graph0" class="graph" transform="scale(1 1) rotate(0) translate(4 196)">
<title>dependency&#45;cruiser output</title>
<polygon fill="white" stroke="transparent" points="-4,4 -4,-196 174.01,-196 174.01,4 -4,4"/>
<g id="clust1" class="cluster">
<title>cluster_client</title>
<path fill="#ffffff" stroke="black" stroke-width="2" d="M20,-100C20,-100 150.01,-100 150.01,-100 156.01,-100 162.01,-106 162.01,-112 162.01,-112 162.01,-172 162.01,-172 162.01,-178 156.01,-184 150.01,-184 150.01,-184 20,-184 20,-184 14,-184 8,-178 8,-172 8,-172 8,-112 8,-112 8,-106 14,-100 20,-100"/>
<text text-anchor="middle" x="85" y="-171.9" font-family="Helvetica,sans-Serif" font-weight="bold" font-size="9.00">client</text>
</g>
<g id="clust2" class="cluster">
<title>cluster_node_modules</title>
<path fill="#ffffff" stroke="black" stroke-width="2" d="M101.51,-8C101.51,-8 152.51,-8 152.51,-8 158.51,-8 164.51,-14 164.51,-20 164.51,-20 164.51,-80 164.51,-80 164.51,-86 158.51,-92 152.51,-92 152.51,-92 101.51,-92 101.51,-92 95.51,-92 89.51,-86 89.51,-80 89.51,-80 89.51,-20 89.51,-20 89.51,-14 95.51,-8 101.51,-8"/>
<text text-anchor="middle" x="127.01" y="-79.9" font-family="Helvetica,sans-Serif" font-weight="bold" font-size="9.00">node_modules</text>
</g>
<!-- client/App.vue -->
<g id="node1" class="node">
<title>client/App.vue</title>
<g id="a_node1"><a xlink:href="client/App.vue" xlink:title="App.vue">
<path fill="#41f083" stroke="black" d="M147.31,-126.3C147.31,-126.3 105.71,-126.3 105.71,-126.3 102.61,-126.3 99.51,-123.2 99.51,-120.1 99.51,-120.1 99.51,-113.9 99.51,-113.9 99.51,-110.8 102.61,-107.7 105.71,-107.7 105.71,-107.7 147.31,-107.7 147.31,-107.7 150.41,-107.7 153.51,-110.8 153.51,-113.9 153.51,-113.9 153.51,-120.1 153.51,-120.1 153.51,-123.2 150.41,-126.3 147.31,-126.3"/>
<text text-anchor="middle" x="126.51" y="-114.3" font-family="Helvetica,sans-Serif" font-size="9.00">App.vue</text>
</a>
</g>
</g>
<!-- client/main.js -->
<g id="node2" class="node">
<title>client/main.js</title>
<g id="a_node2"><a xlink:href="client/main.js" xlink:title="main.js">
<path fill="#ffffcc" stroke="black" d="M69.55,-157.3C69.55,-157.3 27.95,-157.3 27.95,-157.3 24.85,-157.3 21.75,-154.2 21.75,-151.1 21.75,-151.1 21.75,-144.9 21.75,-144.9 21.75,-141.8 24.85,-138.7 27.95,-138.7 27.95,-138.7 69.55,-138.7 69.55,-138.7 72.65,-138.7 75.75,-141.8 75.75,-144.9 75.75,-144.9 75.75,-151.1 75.75,-151.1 75.75,-154.2 72.65,-157.3 69.55,-157.3"/>
<text text-anchor="middle" x="48.75" y="-145.3" font-family="Helvetica,sans-Serif" font-size="9.00">main.js</text>
</a>
</g>
</g>
<!-- client/main.js&#45;&gt;client/App.vue -->
<g id="edge1" class="edge">
<title>client/main.js&#45;&gt;client/App.vue</title>
<path fill="none" stroke="#000000" stroke-width="2" stroke-opacity="0.200000" d="M72.89,-138.53C80.45,-135.44 88.94,-131.96 96.85,-128.73"/>
<polygon fill="#000000" fill-opacity="0.200000" stroke="#000000" stroke-width="2" stroke-opacity="0.200000" points="98.01,-130.52 102.77,-126.3 96.42,-126.63 98.01,-130.52"/>
</g>
<!-- client/styles.css -->
<g id="node3" class="node">
<title>client/styles.css</title>
<g id="a_node3"><a xlink:href="client/styles.css" xlink:title="styles.css">
<path fill="#ffffcc" stroke="black" d="M147.81,-157.3C147.81,-157.3 105.21,-157.3 105.21,-157.3 102.11,-157.3 99.01,-154.2 99.01,-151.1 99.01,-151.1 99.01,-144.9 99.01,-144.9 99.01,-141.8 102.11,-138.7 105.21,-138.7 105.21,-138.7 147.81,-138.7 147.81,-138.7 150.91,-138.7 154.01,-141.8 154.01,-144.9 154.01,-144.9 154.01,-151.1 154.01,-151.1 154.01,-154.2 150.91,-157.3 147.81,-157.3"/>
<text text-anchor="middle" x="126.51" y="-145.3" font-family="Helvetica,sans-Serif" font-size="9.00">styles.css</text>
</a>
</g>
</g>
<!-- client/main.js&#45;&gt;client/styles.css -->
<g id="edge2" class="edge">
<title>client/main.js&#45;&gt;client/styles.css</title>
<path fill="none" stroke="#000000" stroke-width="2" stroke-opacity="0.200000" d="M75.82,-148C81.29,-148 87.13,-148 92.8,-148"/>
<polygon fill="#000000" fill-opacity="0.200000" stroke="#000000" stroke-width="2" stroke-opacity="0.200000" points="92.87,-150.1 98.87,-148 92.87,-145.9 92.87,-150.1"/>
</g>
<!-- node_modules/vue -->
<g id="node4" class="node">
<title>node_modules/vue</title>
<g id="a_node4"><a xlink:href="node_modules/vue" xlink:title="vue">
<polygon fill="#c40b0a" fill-opacity="0.101961" stroke="black" points="153.51,-65.3 101.58,-65.3 99.51,-63.23 99.51,-46.7 151.44,-46.7 153.51,-48.77 153.51,-65.3"/>
<polyline fill="none" stroke="black" points="151.44,-63.23 99.51,-63.23 "/>
<polyline fill="none" stroke="black" points="151.44,-63.23 151.44,-46.7 "/>
<polyline fill="none" stroke="black" points="151.44,-63.23 153.51,-65.3 "/>
<text text-anchor="middle" x="126.51" y="-53.3" font-family="Helvetica,sans-Serif" font-size="9.00" fill="#c40b0a">vue</text>
</a>
</g>
</g>
<!-- client/main.js&#45;&gt;node_modules/vue -->
<g id="edge3" class="edge">
<title>client/main.js&#45;&gt;node_modules/vue</title>
<path fill="none" stroke="#000000" stroke-opacity="0.200000" d="M74.34,-138.53C77.04,-136.69 79.53,-134.53 81.51,-132 91.35,-119.44 82.24,-111.21 89.51,-97 94.72,-86.8 103.04,-77.09 110.37,-69.68"/>
<polygon fill="#000000" fill-opacity="0.200000" stroke="#000000" stroke-opacity="0.200000" points="111.94,-71.08 114.77,-65.38 109.01,-68.08 111.94,-71.08"/>
</g>
<!-- client/vite.config.js -->
<g id="node5" class="node">
<title>client/vite.config.js</title>
<g id="a_node5"><a xlink:href="client/vite.config.js" xlink:title="vite.config.js">
<path fill="#ffffcc" stroke="black" d="M75.06,-126.3C75.06,-126.3 22.44,-126.3 22.44,-126.3 19.34,-126.3 16.24,-123.2 16.24,-120.1 16.24,-120.1 16.24,-113.9 16.24,-113.9 16.24,-110.8 19.34,-107.7 22.44,-107.7 22.44,-107.7 75.06,-107.7 75.06,-107.7 78.16,-107.7 81.26,-110.8 81.26,-113.9 81.26,-113.9 81.26,-120.1 81.26,-120.1 81.26,-123.2 78.16,-126.3 75.06,-126.3"/>
<text text-anchor="middle" x="48.75" y="-114.3" font-family="Helvetica,sans-Serif" font-size="9.00">vite.config.js</text>
</a>
</g>
</g>
<!-- node_modules/@vitejs -->
<g id="node6" class="node">
<title>node_modules/@vitejs</title>
<g id="a_node6"><a xlink:href="node_modules/@vitejs" xlink:title="@vitejs">
<polygon fill="#c40b0a" fill-opacity="0.101961" stroke="black" points="153.51,-34.3 101.58,-34.3 99.51,-32.23 99.51,-15.7 151.44,-15.7 153.51,-17.77 153.51,-34.3"/>
<polyline fill="none" stroke="black" points="151.44,-32.23 99.51,-32.23 "/>
<polyline fill="none" stroke="black" points="151.44,-32.23 151.44,-15.7 "/>
<polyline fill="none" stroke="black" points="151.44,-32.23 153.51,-34.3 "/>
<text text-anchor="middle" x="126.51" y="-22.3" font-family="Helvetica,sans-Serif" font-size="9.00" fill="#c40b0a">@vitejs</text>
</a>
</g>
</g>
<!-- client/vite.config.js&#45;&gt;node_modules/@vitejs -->
<g id="edge4" class="edge">
<title>client/vite.config.js&#45;&gt;node_modules/@vitejs</title>
<path fill="none" stroke="#000000" stroke-opacity="0.200000" d="M52.44,-107.57C57.35,-91.82 69.2,-60.05 89.51,-41 90.95,-39.64 92.54,-38.39 94.2,-37.23"/>
<polygon fill="#000000" fill-opacity="0.200000" stroke="#000000" stroke-opacity="0.200000" points="95.39,-38.96 99.41,-34.04 93.19,-35.38 95.39,-38.96"/>
</g>
</g>
</svg>
